ply
format ascii 1.0
comment VCGLIB generated
element vertex 126
property float x
property float y
property float z
element face 248
property list uchar int vertex_indices
end_header
4.72593 -4.75017 4.31942 
-0.055422 -4.85842 3.62191 
0.53634 -4.62187 3.16165 
4.22633 -6.22247 3.50714 
4.95418 -5.77638 2.97454 
4.71386 -4.69756 2.68869 
1.63409 2.17773 -0.527788 
-4.95785 -5.79031 2.94477 
-4.52237 -6.39261 2.95065 
-4.31772 -5.30283 2.26296 
0.0223541 -4.0026 2.41761 
4.07473 -5.0265 2.82704 
-4.11914 -7.0538 2.73119 
1.78105 4.24754 -1.64728 
1.53894 -7.83457 2.3837 
-2.5318 1.72707 -1.8822 
1.20855 -5.57852 1.74144 
-0.858521 -5.22675 2.12555 
1.73997 -1.68033 -1.9478 
0.362368 -7.23868 0.382657 
-4.66155 -6.023 1.53862 
-0.360057 -6.17976 2.20305 
0.646048 -6.53675 2.12454 
-3.85748 -4.23363 1.76459 
1.40358 -6.89674 1.76658 
-1.36474 -7.34058 1.69157 
3.01449 1.67316 -1.82521 
2.45192 4.22954 -2.09926 
-1.77672 1.39893 -1.91401 
3.56923 -5.72041 2.1344 
-0.343277 -0.586225 -2.01042 
0.431954 -1.99381 -2.57996 
4.5184 -6.04239 2.20826 
3.04599 -4.95163 1.50748 
0.747919 -3.5989 -2.952 
3.3762 -4.06298 1.52313 
1.00962 -7.01582 -1.3961 
-4.92729 -5.05184 1.75588 
-0.771194 -7.00223 -1.50029 
0.149229 0.114916 -3.63361 
0.570788 -6.73183 1.19661 
2.06112 -4.88102 0.860825 
-0.636431 -2.93634 -2.60406 
-1.16009 3.32717 -1.4545 
-0.567025 -0.0395531 -1.20846 
1.29415 -3.43543 1.22186 
3.32201 3.19122 -1.16219 
0.0124652 -4.13609 1.09055 
-1.10275 -3.74257 1.15829 
5.11467 -5.21916 1.3439 
-1.18546 0.87236 -1.31492 
0.0703556 -6.35444 -2.71517 
-1.19838 -5.77219 1.01162 
-0.732127 -2.51049 0.54299 
1.49858 -5.38862 1.08504 
-1.20314 -6.08443 -2.46572 
-1.98597 -4.43383 0.485287 
-1.48416 3.9847 -2.5585 
-3.02107 -4.90845 0.828592 
0.347893 -0.623474 -1.852 
-3.68863 -6.14183 1.46576 
-4.69494 -5.59804 0.343793 
4.45489 -4.28286 1.15915 
-2.3154 4.20697 -1.79364 
2.07861 -3.78519 0.425164 
-1.96379 -3.60107 0.161193 
2.47952 -5.35332 -0.191213 
-3.41801 -3.82644 0.836761 
1.96211 -4.61871 -2.35861 
3.55409 -5.37114 0.694562 
-1.79121 -3.17685 -1.78048 
-0.864611 4.20161 -2.32323 
-4.40773 -4.2783 0.50547 
0.453314 -2.64158 0.777313 
3.2147 0.320958 0.285719 
3.21555 0.954975 -1.00881 
1.54373 -0.429691 -2.12659 
-1.54745 -2.63847 -1.47084 
-0.783882 -0.3653 -0.0602878 
-2.79523 4.03345 -0.430104 
0.00925491 -1.55551 0.430129 
-2.18896 0.680237 -1.5276 
-0.772554 -6.5744 1.13783 
1.50189 -2.97423 -2.13024 
-1.70982 -1.33261 -0.284564 
-0.754642 -5.02574 -3.04814 
-1.89049 3.29539 -1.12938 
-1.60366 0.952871 -0.054546 
1.81282 -1.89967 -1.05451 
1.27696 -1.39675 -0.0449487 
0.785743 -4.90115 -3.14798 
2.98116 4.28594 0.192362 
2.05319 3.75823 -1.82473 
-2.73264 1.74435 -0.651846 
2.58261 1.89945 -0.0490807 
-1.0585 1.93994 -1.68134 
3.02374 -0.673661 -1.11735 
-1.33611 -0.553042 -2.06084 
-2.1332 -5.20557 0.02367 
-2.20244 -0.76738 -1.7916 
-1.98471 -3.93529 -1.36838 
-2.18789 -0.328897 0.0979089 
0.178237 -0.648958 -0.184997 
0.300835 0.304001 -3.0385 
1.49883 -0.324418 0.0728506 
-1.74096 -4.34751 -2.37874 
1.52923 -5.92247 -2.35289 
4.12369 4.16319 -0.482754 
2.01723 0.904602 -0.145704 
-1.88819 4.22778 0.0997015 
-2.72502 1.02739 -0.0390327 
0.86506 0.116652 -1.30922 
2.56923 3.34108 -0.543077 
2.43139 -4.72436 -1.12556 
-2.03376 1.84136 -0.151618 
-2.85995 -0.313021 -0.816858 
-2.31028 -5.33586 -1.0845 
3.49419 -3.76021 0.459865 
-0.413308 -1.29982 -2.37987 
1.44667 -2.46051 -0.51973 
-3.64466 -4.71704 -0.201049 
1.93478 0.954532 -1.34472 
-1.56913 -1.91654 -0.923395 
3.35193 -4.6269 -0.568774 
2.25431 -3.59876 -0.772694 
-3.13858 -3.71361 -0.511376 
3 4 3 0 
3 3 29 11 
3 1 10 2 
3 11 0 3 
3 0 11 5 
3 31 18 118 
3 59 118 76 
3 4 0 5 
3 59 30 103 
3 55 38 51 
3 29 3 32 
3 52 98 56 
3 118 39 30 
3 45 119 64 
3 16 1 2 
3 4 32 3 
3 10 1 17 
3 122 97 99 
3 7 9 8 
3 62 5 35 
3 78 44 102 
3 5 32 4 
3 106 36 66 
3 10 16 2 
3 57 15 28 
3 1 16 21 
3 113 124 68 
3 113 106 66 
3 5 49 32 
3 16 22 21 
3 83 18 31 
3 7 8 20 
3 63 15 57 
3 42 118 77 
3 49 5 62 
3 12 20 8 
3 9 7 37 
3 83 68 124 
3 60 12 8 
3 27 92 46 
3 60 8 9 
3 57 43 71 
3 47 16 10 
3 90 34 85 
3 59 76 111 
3 9 37 23 
3 9 23 60 
3 105 116 55 
3 37 7 20 
3 45 73 119 
3 10 17 52 
3 29 33 11 
3 110 93 114 
3 100 105 70 
3 121 75 26 
3 14 22 24 
3 10 52 47 
3 75 46 26 
3 83 34 68 
3 12 60 20 
3 14 40 22 
3 93 28 15 
3 11 33 35 
3 1 21 17 
3 24 22 40 
3 63 109 79 
3 36 106 51 
3 17 21 25 
3 71 63 57 
3 31 34 83 
3 50 95 28 
3 81 28 93 
3 22 16 40 
3 82 21 22 
3 77 70 42 
3 25 21 82 
3 82 22 40 
3 25 82 17 
3 33 29 69 
3 30 97 118 
3 18 96 75 
3 51 90 85 
3 82 52 17 
3 43 57 95 
3 38 36 51 
3 79 86 63 
3 109 63 71 
3 55 116 38 
3 69 29 32 
3 20 60 61 
3 45 41 47 
3 41 35 33 
3 63 93 15 
3 97 77 118 
3 45 47 73 
3 97 122 77 
3 18 75 76 
3 16 47 54 
3 58 60 23 
3 33 69 41 
3 61 37 20 
3 43 109 71 
3 117 62 35 
3 40 14 24 
3 92 6 121 
3 39 103 30 
3 67 58 23 
3 87 95 50 
3 93 63 86 
3 70 105 42 
3 47 41 54 
3 31 42 34 
3 70 77 100 
3 67 23 72 
3 37 72 23 
3 85 34 42 
3 18 88 96 
3 43 114 86 
3 49 69 32 
3 5 11 35 
3 103 39 59 
3 46 107 27 
3 35 64 117 
3 86 109 43 
3 64 41 45 
3 53 48 65 
3 95 87 43 
3 52 116 98 
3 28 81 50 
3 19 82 40 
3 58 56 98 
3 64 35 41 
3 61 72 37 
3 73 47 53 
3 67 56 58 
3 48 52 56 
3 34 90 68 
3 48 53 47 
3 43 87 114 
3 47 52 48 
3 49 62 69 
3 81 115 99 
3 72 125 67 
3 100 116 105 
3 67 65 56 
3 27 107 13 
3 30 44 97 
3 40 54 66 
3 56 65 48 
3 51 85 55 
3 115 84 99 
3 106 90 51 
3 66 54 41 
3 66 19 40 
3 62 117 123 
3 91 107 112 
3 107 91 13 
3 60 58 120 
3 69 62 123 
3 60 120 61 
3 53 80 73 
3 113 68 106 
3 100 77 65 
3 6 108 121 
3 89 73 80 
3 121 111 76 
3 65 125 100 
3 72 120 125 
3 42 105 85 
3 13 92 27 
3 78 101 110 
3 66 41 69 
3 118 42 31 
3 93 86 114 
3 78 110 87 
3 18 83 88 
3 76 75 121 
3 74 104 108 
3 78 84 101 
3 102 89 80 
3 111 102 59 
3 99 84 122 
3 104 74 89 
3 65 67 125 
3 72 61 120 
3 120 100 125 
3 53 122 80 
3 110 114 87 
3 28 95 57 
3 102 80 78 
3 78 80 84 
3 89 119 73 
3 79 109 86 
3 90 106 68 
3 98 120 58 
3 39 118 59 
3 82 19 38 
3 26 92 121 
3 112 92 13 
3 94 74 108 
3 112 6 92 
3 77 53 65 
3 124 64 119 
3 116 100 120 
3 83 119 88 
3 82 38 52 
3 89 102 104 
3 44 50 97 
3 81 99 97 
3 123 66 69 
3 75 74 46 
3 96 74 75 
3 122 84 80 
3 89 74 88 
3 6 94 108 
3 91 112 13 
3 46 112 107 
3 97 50 81 
3 93 110 81 
3 122 53 77 
3 52 38 116 
3 55 85 105 
3 46 74 94 
3 44 30 59 
3 83 124 119 
3 123 113 66 
3 44 87 50 
3 124 113 123 
3 111 121 108 
3 36 19 66 
3 88 74 96 
3 116 120 98 
3 76 118 18 
3 94 112 46 
3 108 104 111 
3 64 124 117 
3 38 19 36 
3 40 16 54 
3 88 119 89 
3 101 115 110 
3 6 112 94 
3 115 101 84 
3 102 111 104 
3 92 26 46 
3 44 78 87 
3 115 81 110 
3 59 102 44 
3 123 117 124 
