ply
format ascii 1.0
comment VCGLIB generated
element vertex 591
property float x
property float y
property float z
element face 320
property list uchar int vertex_indices
end_header
-0.504849 0.965874 -0.498135 
-0.495523 1.04911 -0.959463 
-0.95469 1.01558 -0.994958 
-0.956776 0.973323 -0.505572 
-0.001409 -1.03626 -0.500644 
-0.508209 -1.03506 -0.501221 
-0.532392 -1.02962 -1.01972 
-0.023178 -1.03239 -1.01773 
1.45134 -0.531947 -0.527761 
1.49192 -1.03523 -0.54098 
1.46661 -1.03387 -1.03584 
1.44386 -0.528812 -1.03327 
-0.066881 -0.51751 -1.05269 
-0.023178 -1.03239 -1.01773 
-0.532392 -1.02962 -1.01972 
-0.569781 -0.519091 -1.04725 
-0.542388 -0.531728 0.488997 
-0.487238 -1.03516 0.497817 
-0.500137 -1.03399 0.992688 
-0.537409 -0.53183 0.988148 
-0.383526 0.491843 0.995082 
-0.472687 0.998087 0.998847 
-0.936682 0.995565 0.997327 
-0.86292 0.490399 0.994212 
-0.499314 0.999952 0.499971 
-0.490688 0.97746 -0.0027139 
-0.949358 0.974912 -0.0062389 
-0.944418 0.996107 0.497654 
0.535127 0.99754 0.498517 
0.663745 0.974026 -0.0058299 
0.026873 0.997171 -0.0011509 
0 1 0.5 
-0.07888 2.25443 0.135567 
0.420141 2.26234 0.165816 
0.400309 2.73459 0.369579 
-0.098713 2.72669 0.33933 
0.996168 -1.03626 -0.541368 
0.481329 -1.03626 -0.520013 
0.479142 -1.03537 -1.02001 
0.974931 -1.0347 -1.02992 
1.01525 -1.87031 -0.0713872 
1.0627 -1.87031 0.428397 
1.06579 -2.62375 0.424977 
1.01519 -2.62375 -0.0724573 
0.039188 -1.03626 0.497498 
-0.487238 -1.03516 0.497817 
-0.484687 -1.036 0.0042789 
0.019602 -1.03626 0.0144539 
1.14556 0.486042 -0.511213 
1.36184 -0.0257079 -0.520184 
1.34112 -0.0139079 -1.03208 
1.14489 0.503087 -1.01207 
1.13284 0.490697 0.494391 
1.35186 -0.024584 0.483238 
1.37466 -0.026247 -0.017811 
1.14826 0.489616 -0.00625995 
1.46534 -0.532323 0.4718 
1.50849 -1.035 0.459064 
1.51265 -1.036 -0.0478001 
1.46379 -0.532515 -0.0288261 
-0.417263 0.54299 -1.07346 
-0.167869 0.00343811 -1.07676 
-0.667715 -0.00280889 -1.06837 
-0.89173 0.525397 -1.06626 
0.620342 0.517345 -1.02402 
0.846374 -0.0074889 -1.04546 
0.34031 0.00188711 -1.06732 
0.059916 0.54929 -1.05921 
0.939303 -0.522877 -1.04288 
0.974931 -1.0347 -1.02992 
0.479142 -1.03537 -1.02001 
0.439332 -0.519381 -1.04985 
-0.863086 0.490411 0.494219 
-0.639769 -0.025153 0.486762 
-0.655171 -0.0240061 0.987389 
-0.86292 0.490399 0.994212 
-0.879668 0.47863 -0.532155 
-0.655535 -0.0286829 -0.542659 
-0.632337 -0.027847 -0.017372 
-0.867979 0.47784 -0.016697 
-0.545497 -0.532543 -0.524243 
-0.508209 -1.03506 -0.501221 
-0.484687 -1.036 0.0042789 
-0.538638 -0.53228 -0.0103841 
-0.036089 -0.531888 0.984546 
-0.152189 -0.0242321 0.986189 
-0.655171 -0.0240061 0.987389 
-0.537409 -0.53183 0.988148 
0.94749 -0.530788 0.976979 
0.834348 -0.0233101 0.985088 
0.344107 -0.0239991 0.985459 
0.461473 -0.531695 0.980439 
0.586699 0.493928 0.996339 
0.51853 0.998702 0.999218 
0 1 1 
0.074667 0.494771 0.996847 
-0.490688 0.97746 -0.0027139 
-0.504849 0.965874 -0.498135 
-0.956776 0.973323 -0.505572 
-0.949358 0.974912 -0.0062389 
0.026873 0.997171 -0.0011509 
-0.001765 0.988837 -0.496774 
-0.504849 0.965874 -0.498135 
-0.490688 0.97746 -0.0027139 
0.420141 2.26234 0.165816 
0.444765 2.46105 -0.292339 
0.424933 2.9333 -0.0885767 
0.400309 2.73459 0.369579 
0.481329 -1.03626 -0.520013 
-0.001409 -1.03626 -0.500644 
-0.023178 -1.03239 -1.01773 
0.479142 -1.03537 -1.02001 
1.0627 -1.87031 0.428397 
0.567171 -1.87031 0.475632 
0.568355 -2.62375 0.475572 
1.06579 -2.62375 0.424977 
0.019602 -1.03626 0.0144539 
-0.484687 -1.036 0.0042789 
-0.508209 -1.03506 -0.501221 
-0.001409 -1.03626 -0.500644 
1.36184 -0.0257079 -0.520184 
1.45134 -0.531947 -0.527761 
1.44386 -0.528812 -1.03327 
1.34112 -0.0139079 -1.03208 
1.37466 -0.026247 -0.017811 
1.46379 -0.532515 -0.0288261 
1.45134 -0.531947 -0.527761 
1.36184 -0.0257079 -0.520184 
1.46379 -0.532515 -0.0288261 
1.51265 -1.036 -0.0478001 
1.49192 -1.03523 -0.54098 
1.45134 -0.531947 -0.527761 
-0.167869 0.00343811 -1.07676 
-0.066881 -0.51751 -1.05269 
-0.569781 -0.519091 -1.04725 
-0.667715 -0.00280889 -1.06837 
0.34031 0.00188711 -1.06732 
0.439332 -0.519381 -1.04985 
-0.066881 -0.51751 -1.05269 
-0.167869 0.00343811 -1.07676 
0.439332 -0.519381 -1.04985 
0.479142 -1.03537 -1.02001 
-0.023178 -1.03239 -1.01773 
-0.066881 -0.51751 -1.05269 
-0.639769 -0.025153 0.486762 
-0.542388 -0.531728 0.488997 
-0.537409 -0.53183 0.988148 
-0.655171 -0.0240061 0.987389 
-0.632337 -0.027847 -0.017372 
-0.538638 -0.53228 -0.0103841 
-0.542388 -0.531728 0.488997 
-0.639769 -0.025153 0.486762 
-0.538638 -0.53228 -0.0103841 
-0.484687 -1.036 0.0042789 
-0.487238 -1.03516 0.497817 
-0.542388 -0.531728 0.488997 
-0.152189 -0.0242321 0.986189 
-0.383526 0.491843 0.995082 
-0.86292 0.490399 0.994212 
-0.655171 -0.0240061 0.987389 
0.344107 -0.0239991 0.985459 
0.074667 0.494771 0.996847 
-0.383526 0.491843 0.995082 
-0.152189 -0.0242321 0.986189 
0.074667 0.494771 0.996847 
0 1 1 
-0.472687 0.998087 0.998847 
-0.383526 0.491843 0.995082 
-0.472687 0.998087 0.998847 
-0.499314 0.999952 0.499971 
-0.944418 0.996107 0.497654 
-0.936682 0.995565 0.997327 
0.5 2.39832 0.5 
0 2.39832 0.5 
0 2.8455 0.5 
0.5 2.8455 0.5 
0 1 0.5 
0.026873 0.997171 -0.0011509 
-0.490688 0.97746 -0.0027139 
-0.499314 0.999952 0.499971 
0.5 2.39832 1 
0.5 2.39832 0.5 
0.5 2.8455 0.5 
0.5 2.8455 1 
1.05608 0.996072 0.997632 
1.06627 0.995359 0.497202 
0.535127 0.99754 0.498517 
0.51853 0.998702 0.999218 
1.06627 0.995359 0.497202 
1.09502 0.986252 -0.0027929 
0.663745 0.974026 -0.0058299 
0.535127 0.99754 0.498517 
0.663745 0.974026 -0.0058299 
0.534068 0.974785 -0.489125 
-0.001765 0.988837 -0.496774 
0.026873 0.997171 -0.0011509 
1.09502 0.986252 -0.0027929 
1.07302 0.98415 -0.494124 
0.534068 0.974785 -0.489125 
0.663745 0.974026 -0.0058299 
1.07302 0.98415 -0.494124 
1.07421 1.00816 -0.98076 
0.535873 1.02403 -0.963031 
0.534068 0.974785 -0.489125 
1.49192 -1.03523 -0.54098 
0.996168 -1.03626 -0.541368 
0.974931 -1.0347 -1.02992 
1.46661 -1.03387 -1.03584 
1.51265 -1.036 -0.0478001 
1.01592 -1.03626 -0.0581171 
0.996168 -1.03626 -0.541368 
1.49192 -1.03523 -0.54098 
0.067582 -1.87031 0.523151 
0.02028 -1.87031 0.0278238 
0.020326 -2.62375 0.0287337 
0.070921 -2.62375 0.526167 
1.50849 -1.035 0.459064 
1.03684 -1.03626 0.457022 
1.01592 -1.03626 -0.0581171 
1.51265 -1.036 -0.0478001 
1.49687 -1.03387 0.964958 
1.0144 -1.03472 0.968512 
1.03684 -1.03626 0.457022 
1.50849 -1.035 0.459064 
1.0144 -1.03472 0.968512 
0.524636 -1.03498 0.977634 
0.553937 -1.03626 0.476303 
1.03684 -1.03626 0.457022 
0.567171 -1.87031 0.475632 
0.067582 -1.87031 0.523151 
0.070921 -2.62375 0.526167 
0.568355 -2.62375 0.475572 
0.524636 -1.03498 0.977634 
0.011282 -1.03444 0.987826 
0.039188 -1.03626 0.497498 
0.553937 -1.03626 0.476303 
0.011282 -1.03444 0.987826 
-0.500137 -1.03399 0.992688 
-0.487238 -1.03516 0.497817 
0.039188 -1.03626 0.497498 
1.07302 0.98415 -0.494124 
1.14556 0.486042 -0.511213 
1.14489 0.503087 -1.01207 
1.07421 1.00816 -0.98076 
1.09502 0.986252 -0.0027929 
1.14826 0.489616 -0.00625995 
1.14556 0.486042 -0.511213 
1.07302 0.98415 -0.494124 
1.14826 0.489616 -0.00625995 
1.37466 -0.026247 -0.017811 
1.36184 -0.0257079 -0.520184 
1.14556 0.486042 -0.511213 
1.06627 0.995359 0.497202 
1.13284 0.490697 0.494391 
1.14826 0.489616 -0.00625995 
1.09502 0.986252 -0.0027929 
1.05608 0.996072 0.997632 
1.11202 0.492155 0.99527 
1.13284 0.490697 0.494391 
1.06627 0.995359 0.497202 
1.11202 0.492155 0.99527 
1.3353 -0.0233671 0.984067 
1.35186 -0.024584 0.483238 
1.13284 0.490697 0.494391 
1.35186 -0.024584 0.483238 
1.46534 -0.532323 0.4718 
1.46379 -0.532515 -0.0288261 
1.37466 -0.026247 -0.017811 
1.3353 -0.0233671 0.984067 
1.44315 -0.530542 0.97377 
1.46534 -0.532323 0.4718 
1.35186 -0.024584 0.483238 
1.44315 -0.530542 0.97377 
1.49687 -1.03387 0.964958 
1.50849 -1.035 0.459064 
1.46534 -0.532323 0.4718 
-0.495523 1.04911 -0.959463 
-0.417263 0.54299 -1.07346 
-0.89173 0.525397 -1.06626 
-0.95469 1.01558 -0.994958 
0.003718 1.06429 -0.92444 
0.059916 0.54929 -1.05921 
-0.417263 0.54299 -1.07346 
-0.495523 1.04911 -0.959463 
0.059916 0.54929 -1.05921 
0.34031 0.00188711 -1.06732 
-0.167869 0.00343811 -1.07676 
-0.417263 0.54299 -1.07346 
0.535873 1.02403 -0.963031 
0.620342 0.517345 -1.02402 
0.059916 0.54929 -1.05921 
0.003718 1.06429 -0.92444 
1.07421 1.00816 -0.98076 
1.14489 0.503087 -1.01207 
0.620342 0.517345 -1.02402 
0.535873 1.02403 -0.963031 
1.14489 0.503087 -1.01207 
1.34112 -0.0139079 -1.03208 
0.846374 -0.0074889 -1.04546 
0.620342 0.517345 -1.02402 
0.846374 -0.0074889 -1.04546 
0.939303 -0.522877 -1.04288 
0.439332 -0.519381 -1.04985 
0.34031 0.00188711 -1.06732 
1.34112 -0.0139079 -1.03208 
1.44386 -0.528812 -1.03327 
0.939303 -0.522877 -1.04288 
0.846374 -0.0074889 -1.04546 
1.44386 -0.528812 -1.03327 
1.46661 -1.03387 -1.03584 
0.974931 -1.0347 -1.02992 
0.939303 -0.522877 -1.04288 
-0.944418 0.996107 0.497654 
-0.863086 0.490411 0.494219 
-0.86292 0.490399 0.994212 
-0.936682 0.995565 0.997327 
-0.949358 0.974912 -0.0062389 
-0.867979 0.47784 -0.016697 
-0.863086 0.490411 0.494219 
-0.944418 0.996107 0.497654 
-0.867979 0.47784 -0.016697 
-0.632337 -0.027847 -0.017372 
-0.639769 -0.025153 0.486762 
-0.863086 0.490411 0.494219 
-0.956776 0.973323 -0.505572 
-0.879668 0.47863 -0.532155 
-0.867979 0.47784 -0.016697 
-0.949358 0.974912 -0.0062389 
-0.95469 1.01558 -0.994958 
-0.89173 0.525397 -1.06626 
-0.879668 0.47863 -0.532155 
-0.956776 0.973323 -0.505572 
-0.89173 0.525397 -1.06626 
-0.667715 -0.00280889 -1.06837 
-0.655535 -0.0286829 -0.542659 
-0.879668 0.47863 -0.532155 
-0.655535 -0.0286829 -0.542659 
-0.545497 -0.532543 -0.524243 
-0.538638 -0.53228 -0.0103841 
-0.632337 -0.027847 -0.017372 
-0.667715 -0.00280889 -1.06837 
-0.569781 -0.519091 -1.04725 
-0.545497 -0.532543 -0.524243 
-0.655535 -0.0286829 -0.542659 
-0.569781 -0.519091 -1.04725 
-0.532392 -1.02962 -1.01972 
-0.508209 -1.03506 -0.501221 
-0.545497 -0.532543 -0.524243 
0.011282 -1.03444 0.987826 
-0.036089 -0.531888 0.984546 
-0.537409 -0.53183 0.988148 
-0.500137 -1.03399 0.992688 
0.524636 -1.03498 0.977634 
0.461473 -0.531695 0.980439 
-0.036089 -0.531888 0.984546 
0.011282 -1.03444 0.987826 
0.461473 -0.531695 0.980439 
0.344107 -0.0239991 0.985459 
-0.152189 -0.0242321 0.986189 
-0.036089 -0.531888 0.984546 
1.0144 -1.03472 0.968512 
0.94749 -0.530788 0.976979 
0.461473 -0.531695 0.980439 
0.524636 -1.03498 0.977634 
1.49687 -1.03387 0.964958 
1.44315 -0.530542 0.97377 
0.94749 -0.530788 0.976979 
1.0144 -1.03472 0.968512 
1.44315 -0.530542 0.97377 
1.3353 -0.0233671 0.984067 
0.834348 -0.0233101 0.985088 
0.94749 -0.530788 0.976979 
0.834348 -0.0233101 0.985088 
0.586699 0.493928 0.996339 
0.074667 0.494771 0.996847 
0.344107 -0.0239991 0.985459 
1.3353 -0.0233671 0.984067 
1.11202 0.492155 0.99527 
0.586699 0.493928 0.996339 
0.834348 -0.0233101 0.985088 
1.11202 0.492155 0.99527 
1.05608 0.996072 0.997632 
0.51853 0.998702 0.999218 
0.586699 0.493928 0.996339 
1.06579 -2.62375 0.424977 
0.568355 -2.62375 0.475572 
0.517759 -2.62375 -0.0218613 
1.01519 -2.62375 -0.0724573 
0.020326 -2.62375 0.0287337 
-0.030269 -2.62375 -0.468699 
0.467164 -2.62375 -0.519295 
0.964598 -2.62375 -0.56989 
0.070921 -2.62375 0.526167 
0.46795 -1.87031 -0.519335 
0.967841 -1.87031 -0.56696 
0.964598 -2.62375 -0.56989 
0.467164 -2.62375 -0.519295 
0.967841 -1.87031 -0.56696 
1.01525 -1.87031 -0.0713872 
1.01519 -2.62375 -0.0724573 
0.964598 -2.62375 -0.56989 
-0.027368 -1.87031 -0.471911 
0.46795 -1.87031 -0.519335 
0.467164 -2.62375 -0.519295 
-0.030269 -2.62375 -0.468699 
0.02028 -1.87031 0.0278238 
-0.027368 -1.87031 -0.471911 
-0.030269 -2.62375 -0.468699 
0.020326 -2.62375 0.0287337 
0.400309 2.73459 0.369579 
0.424933 2.9333 -0.0885767 
-0.074089 2.9254 -0.118825 
-0.098713 2.72669 0.33933 
-0.098713 2.72669 0.33933 
-0.074089 2.9254 -0.118825 
-0.57311 2.91749 -0.149074 
-0.597734 2.71878 0.309081 
-0.553278 2.44524 -0.352837 
-0.577902 2.24653 0.105319 
-0.597734 2.71878 0.309081 
-0.57311 2.91749 -0.149074 
-0.577902 2.24653 0.105319 
-0.597734 2.71878 0.309081 
0.444765 2.46105 -0.292339 
-0.054256 2.45314 -0.322588 
-0.074089 2.9254 -0.118825 
0.424933 2.9333 -0.0885767 
-0.054256 2.45314 -0.322588 
-0.553278 2.44524 -0.352837 
-0.57311 2.91749 -0.149074 
-0.074089 2.9254 -0.118825 
0 2.8455 1 
0 2.8455 0.5 
-0.5 2.8455 0.5 
-0.5 2.8455 1 
0.5 2.8455 1 
0.5 2.8455 0.5 
-0.5 2.39832 0.5 
-0.5 2.39832 1 
-0.5 2.8455 1 
-0.5 2.8455 0.5 
-0.5 2.39832 0.5 
-0.5 2.8455 0.5 
0 2.39832 1 
0.5 2.39832 1 
0.5 2.8455 1 
0 2.8455 1 
-0.5 2.39832 1 
-0.5 2.8455 1 
1.01592 -1.03626 -0.0581171 
1.03684 -1.03626 0.457022 
1.0627 -1.87031 0.428397 
1.01525 -1.87031 -0.0713872 
1.03684 -1.03626 0.457022 
0.553937 -1.03626 0.476303 
0.567171 -1.87031 0.475632 
1.0627 -1.87031 0.428397 
0.039188 -1.03626 0.497498 
0.019602 -1.03626 0.0144539 
0.02028 -1.87031 0.0278238 
0.067582 -1.87031 0.523151 
0.553937 -1.03626 0.476303 
0.039188 -1.03626 0.497498 
0.067582 -1.87031 0.523151 
0.567171 -1.87031 0.475632 
0.481329 -1.03626 -0.520013 
0.996168 -1.03626 -0.541368 
0.967841 -1.87031 -0.56696 
0.46795 -1.87031 -0.519335 
0.996168 -1.03626 -0.541368 
1.01592 -1.03626 -0.0581171 
1.01525 -1.87031 -0.0713872 
0.967841 -1.87031 -0.56696 
-0.001409 -1.03626 -0.500644 
0.481329 -1.03626 -0.520013 
0.46795 -1.87031 -0.519335 
-0.027368 -1.87031 -0.471911 
0.019602 -1.03626 0.0144539 
-0.001409 -1.03626 -0.500644 
-0.027368 -1.87031 -0.471911 
0.02028 -1.87031 0.0278238 
0.5 1.47557 0.5 
0 1.47557 0.5 
0 1.95115 0.5 
0.5 1.95115 0.5 
0.5 1.47557 1 
0.5 1.47557 0.5 
0.5 1.95115 0.5 
0.5 1.95115 1 
-0.5 1.47557 0.5 
-0.5 1.47557 1 
-0.5 1.95115 1 
-0.5 1.95115 0.5 
-0.5 1.47557 0.5 
-0.5 1.95115 0.5 
0 1.47557 1 
0.5 1.47557 1 
0.5 1.95115 1 
0 1.95115 1 
-0.5 1.47557 1 
-0.5 1.95115 1 
-0.036888 1.34773 -0.281443 
0.465093 1.3665 -0.272455 
0.440333 1.80926 -0.0390438 
-0.059708 1.79788 -0.0614168 
0.465093 1.3665 -0.272455 
0.485511 1.53586 -0.728505 
0.464176 2.00456 -0.492698 
0.440333 1.80926 -0.0390438 
-0.514459 1.52412 -0.752651 
-0.535572 1.34241 -0.311417 
-0.558729 1.78998 -0.0916658 
-0.534105 1.98869 -0.549821 
-0.535572 1.34241 -0.311417 
-0.036888 1.34773 -0.281443 
-0.059708 1.79788 -0.0614168 
-0.558729 1.78998 -0.0916658 
0.485511 1.53586 -0.728505 
-0.015581 1.5322 -0.719946 
-0.035084 1.9966 -0.519573 
0.464176 2.00456 -0.492698 
-0.015581 1.5322 -0.719946 
-0.514459 1.52412 -0.752651 
-0.534105 1.98869 -0.549821 
-0.035084 1.9966 -0.519573 
0.535127 0.99754 0.498517 
0 1 0.5 
0 1.47557 0.5 
0.5 1.47557 0.5 
0.51853 0.998702 0.999218 
0.535127 0.99754 0.498517 
0.5 1.47557 0.5 
0.5 1.47557 1 
-0.499314 0.999952 0.499971 
-0.472687 0.998087 0.998847 
-0.5 1.47557 1 
-0.5 1.47557 0.5 
0 1 0.5 
-0.499314 0.999952 0.499971 
-0.5 1.47557 0.5 
0 1.47557 0.5 
0 1 1 
0.51853 0.998702 0.999218 
0.5 1.47557 1 
0 1.47557 1 
-0.472687 0.998087 0.998847 
0 1 1 
0 1.47557 1 
-0.5 1.47557 1 
-0.001765 0.988837 -0.496774 
0.534068 0.974785 -0.489125 
0.465093 1.3665 -0.272455 
-0.036888 1.34773 -0.281443 
0.534068 0.974785 -0.489125 
0.535873 1.02403 -0.963031 
0.485511 1.53586 -0.728505 
0.465093 1.3665 -0.272455 
-0.495523 1.04911 -0.959463 
-0.504849 0.965874 -0.498135 
-0.535572 1.34241 -0.311417 
-0.514459 1.52412 -0.752651 
-0.504849 0.965874 -0.498135 
-0.001765 0.988837 -0.496774 
-0.036888 1.34773 -0.281443 
-0.535572 1.34241 -0.311417 
0.535873 1.02403 -0.963031 
0.003718 1.06429 -0.92444 
-0.015581 1.5322 -0.719946 
0.485511 1.53586 -0.728505 
0.003718 1.06429 -0.92444 
-0.495523 1.04911 -0.959463 
-0.514459 1.52412 -0.752651 
-0.015581 1.5322 -0.719946 
-0.059708 1.79788 -0.0614168 
0.440333 1.80926 -0.0390438 
0.420141 2.26234 0.165816 
-0.07888 2.25443 0.135567 
0.440333 1.80926 -0.0390438 
0.464176 2.00456 -0.492698 
0.444765 2.46105 -0.292339 
0.420141 2.26234 0.165816 
-0.534105 1.98869 -0.549821 
-0.558729 1.78998 -0.0916658 
-0.558729 1.78998 -0.0916658 
-0.059708 1.79788 -0.0614168 
0.464176 2.00456 -0.492698 
-0.035084 1.9966 -0.519573 
-0.054256 2.45314 -0.322588 
0.444765 2.46105 -0.292339 
-0.035084 1.9966 -0.519573 
-0.534105 1.98869 -0.549821 
3 0 1 2 
3 0 2 3 
3 4 5 6 
3 4 6 7 
3 8 9 10 
3 8 10 11 
3 12 13 14 
3 12 14 15 
3 16 17 18 
3 16 18 19 
3 20 21 22 
3 20 22 23 
3 24 25 26 
3 24 26 27 
3 28 29 30 
3 28 30 31 
3 32 33 34 
3 32 34 35 
3 36 37 38 
3 36 38 39 
3 40 41 42 
3 40 42 43 
3 44 45 46 
3 44 46 47 
3 48 49 50 
3 48 50 51 
3 52 53 54 
3 52 54 55 
3 56 57 58 
3 56 58 59 
3 60 61 62 
3 60 62 63 
3 64 65 66 
3 64 66 67 
3 68 69 70 
3 68 70 71 
3 72 73 74 
3 72 74 75 
3 76 77 78 
3 76 78 79 
3 80 81 82 
3 80 82 83 
3 84 85 86 
3 84 86 87 
3 88 89 90 
3 88 90 91 
3 92 93 94 
3 92 94 95 
3 96 97 98 
3 96 98 99 
3 100 101 102 
3 100 102 103 
3 104 105 106 
3 104 106 107 
3 108 109 110 
3 108 110 111 
3 112 113 114 
3 112 114 115 
3 116 117 118 
3 116 118 119 
3 120 121 122 
3 120 122 123 
3 124 125 126 
3 124 126 127 
3 128 129 130 
3 128 130 131 
3 132 133 134 
3 132 134 135 
3 136 137 138 
3 136 138 139 
3 140 141 142 
3 140 142 143 
3 144 145 146 
3 144 146 147 
3 148 149 150 
3 148 150 151 
3 152 153 154 
3 152 154 155 
3 156 157 158 
3 156 158 159 
3 160 161 162 
3 160 162 163 
3 164 165 166 
3 164 166 167 
3 168 169 170 
3 168 170 171 
3 172 173 174 
3 172 174 175 
3 176 177 178 
3 176 178 179 
3 180 181 182 
3 180 182 183 
3 184 185 186 
3 184 186 187 
3 188 189 190 
3 188 190 191 
3 192 193 194 
3 192 194 195 
3 196 197 198 
3 196 198 199 
3 200 201 202 
3 200 202 203 
3 204 205 206 
3 204 206 207 
3 208 209 210 
3 208 210 211 
3 212 213 214 
3 212 214 215 
3 216 217 218 
3 216 218 219 
3 220 221 222 
3 220 222 223 
3 224 225 226 
3 224 226 227 
3 228 229 230 
3 228 230 231 
3 232 233 234 
3 232 234 235 
3 236 237 238 
3 236 238 239 
3 240 241 242 
3 240 242 243 
3 244 245 246 
3 244 246 247 
3 248 249 250 
3 248 250 251 
3 252 253 254 
3 252 254 255 
3 256 257 258 
3 256 258 259 
3 260 261 262 
3 260 262 263 
3 264 265 266 
3 264 266 267 
3 268 269 270 
3 268 270 271 
3 272 273 274 
3 272 274 275 
3 276 277 278 
3 276 278 279 
3 280 281 282 
3 280 282 283 
3 284 285 286 
3 284 286 287 
3 288 289 290 
3 288 290 291 
3 292 293 294 
3 292 294 295 
3 296 297 298 
3 296 298 299 
3 300 301 302 
3 300 302 303 
3 304 305 306 
3 304 306 307 
3 308 309 310 
3 308 310 311 
3 312 313 314 
3 312 314 315 
3 316 317 318 
3 316 318 319 
3 320 321 322 
3 320 322 323 
3 324 325 326 
3 324 326 327 
3 328 329 330 
3 328 330 331 
3 332 333 334 
3 332 334 335 
3 336 337 338 
3 336 338 339 
3 340 341 342 
3 340 342 343 
3 344 345 346 
3 344 346 347 
3 348 349 350 
3 348 350 351 
3 352 353 354 
3 352 354 355 
3 356 357 358 
3 356 358 359 
3 360 361 362 
3 360 362 363 
3 364 365 366 
3 364 366 367 
3 368 369 370 
3 368 370 371 
3 372 373 374 
3 372 374 375 
3 376 377 378 
3 376 378 379 
3 380 381 382 
3 380 382 383 
3 384 385 386 
3 384 386 387 
3 386 388 389 
3 386 389 390 
3 387 386 390 
3 387 390 391 
3 385 392 388 
3 385 388 386 
3 393 394 395 
3 393 395 396 
3 397 398 399 
3 397 399 400 
3 401 402 403 
3 401 403 404 
3 405 406 407 
3 405 407 408 
3 409 410 411 
3 409 411 412 
3 413 414 415 
3 413 415 416 
3 417 418 419 
3 417 419 420 
3 421 32 35 
3 421 35 422 
3 423 424 425 
3 423 425 426 
3 427 428 429 
3 427 429 430 
3 431 432 433 
3 431 433 434 
3 435 436 432 
3 435 432 431 
3 437 438 439 
3 437 439 440 
3 173 441 442 
3 173 442 174 
3 443 444 445 
3 443 445 446 
3 447 443 446 
3 447 446 448 
3 449 450 451 
3 449 451 452 
3 453 454 455 
3 453 455 456 
3 457 458 459 
3 457 459 460 
3 461 462 463 
3 461 463 464 
3 465 466 467 
3 465 467 468 
3 469 470 471 
3 469 471 472 
3 473 474 475 
3 473 475 476 
3 477 478 479 
3 477 479 480 
3 481 482 483 
3 481 483 484 
3 485 486 487 
3 485 487 488 
3 489 490 491 
3 489 491 492 
3 482 493 494 
3 482 494 483 
3 495 496 497 
3 495 497 498 
3 499 495 498 
3 499 498 500 
3 501 502 503 
3 501 503 504 
3 505 506 507 
3 505 507 508 
3 509 510 511 
3 509 511 512 
3 513 514 515 
3 513 515 516 
3 517 518 519 
3 517 519 520 
3 521 522 523 
3 521 523 524 
3 525 526 527 
3 525 527 528 
3 529 530 531 
3 529 531 532 
3 533 534 535 
3 533 535 536 
3 537 538 539 
3 537 539 540 
3 541 542 543 
3 541 543 544 
3 545 546 547 
3 545 547 548 
3 484 483 173 
3 484 173 172 
3 488 487 181 
3 488 181 180 
3 492 491 438 
3 492 438 437 
3 483 494 441 
3 483 441 173 
3 498 497 444 
3 498 444 443 
3 500 498 443 
3 500 443 447 
3 549 550 551 
3 549 551 552 
3 553 554 555 
3 553 555 556 
3 557 558 559 
3 557 559 560 
3 561 562 563 
3 561 563 564 
3 565 566 567 
3 565 567 568 
3 569 570 571 
3 569 571 572 
3 573 574 575 
3 573 575 576 
3 577 578 579 
3 577 579 580 
3 581 582 418 
3 581 418 417 
3 583 584 32 
3 583 32 421 
3 585 586 587 
3 585 587 588 
3 589 590 428 
3 589 428 427 
