ply
format ascii 1.0
comment VCGLIB generated
element vertex 206
property float x
property float y
property float z
element face 166
property list uchar int vertex_indices
end_header
1 -1 -1 
1 -1 1 
-1 -1 1 
-1 -1 -1 
-0.75 0.566521 0.75 
-1 0.566521 0.75 
-1 0.566521 1 
-0.75 0.566521 1 
1 -1 -1 
1 0.566521 -0.999999 
1 -0.682096 -0.499999 
1 -1 -1 
1 -0.682096 -0.499999 
1 -1 1 
1 0.566521 -0.749999 
1 -0.682096 -0.499999 
1 -0.682096 -0.249999 
1 -1 1 
1 -0.682096 -0.249999 
1 -0.682096 9.10554e-07 
1 -1 1 
1 -0.682096 0.250001 
1 -0.682096 0.500001 
1 -0.682096 0.500001 
1 0.566521 0.750001 
1 -1 1 
1 0.566521 0.750001 
0.999999 0.566521 1 
1 -1 1 
-0.75 0.566521 1 
-1 0.566521 1 
-1 -1 1 
-0.5 -0.682096 1 
0.999999 0.566521 1 
0.749999 0.566521 1 
0.499999 -0.682096 1 
1 -1 1 
-0.250001 -0.682096 1 
-0.5 -0.682096 1 
-1 -1 1 
-1e-06 -0.682096 1 
0.249999 -0.682096 1 
0.499999 -0.682096 1 
1 -1 1 
0.499999 -0.682096 1 
-1 -1 1 
-1 -1 1 
-1 -0.682096 -0.5 
-1 -1 -1 
-1 -0.682096 -0.5 
-1 0.566521 -1 
-1 -1 -1 
-1 -0.682096 -0.5 
-1 0.566521 -0.75 
-1 0.566521 -1 
-1 -1 1 
-1 -0.682096 -0.25 
-1 -0.682096 -8.94461e-08 
-1 -0.682096 -0.25 
-1 -0.682096 0.25 
-1 -0.682096 0.5 
-1 -0.682096 0.25 
-1 0.566521 0.75 
-1 0.566521 1 
-1 -1 -1 
-1 0.566521 -1 
-0.5 -0.682096 -1 
1 -1 -1 
-1 -1 -1 
-0.5 -0.682096 -1 
-0.25 -0.682096 -1 
0 -0.682096 -1 
0.25 -0.682096 -1 
0.5 -0.682096 -1 
1 0.566521 -0.999999 
1 -1 -1 
0.5 -0.682096 -1 
-1 0.566521 -1 
-0.75 0.566521 -1 
-0.5 -0.682096 -1 
0.75 0.566521 -1 
0.25 -0.682096 0.75 
0 -0.682096 0.75 
-1e-06 -0.682096 1 
0.249999 -0.682096 1 
0.25 -0.682096 -0.25 
0 -0.682096 -0.25 
0 -0.682096 -8.94461e-08 
0.25 -0.682096 -8.94461e-08 
-0.75 -0.682096 -0.25 
-1 -0.682096 -0.25 
-1 -0.682096 -8.94461e-08 
-0.75 -0.682096 -8.94461e-08 
-0.25 -0.682096 0.75 
-0.5 -0.682096 0.75 
-0.5 -0.682096 1 
-0.250001 -0.682096 1 
-0.25 -0.682096 0.25 
-0.5 -0.682096 0.25 
-0.5 -0.682096 0.5 
-0.25 -0.682096 0.5 
-0.75 -0.682096 0.25 
-1 -0.682096 0.25 
-1 -0.682096 0.5 
-0.75 -0.682096 0.5 
0.75 0.566521 0.75 
0.5 -0.682096 0.75 
0.499999 -0.682096 1 
0.749999 0.566521 1 
0.75 -0.682096 0.25 
0.5 -0.682096 0.25 
0.5 -0.682096 0.5 
0.75 -0.682096 0.5 
0.25 -0.682096 0.25 
0 -0.682096 0.25 
0 -0.682096 0.5 
0.25 -0.682096 0.5 
0.75 -0.682096 -0.25 
0.5 -0.682096 -0.25 
0.5 -0.682096 -8.94461e-08 
0.75 -0.682096 -8.94461e-08 
0.75 0.566521 -0.75 
0.5 -0.682096 -0.75 
0.5 -0.682096 -0.5 
0.75 -0.682096 -0.5 
0.25 -0.682096 -0.75 
0 -0.682096 -0.75 
0 -0.682096 -0.5 
0.25 -0.682096 -0.5 
-0.25 -0.682096 -0.25 
-0.5 -0.682096 -0.25 
-0.5 -0.682096 -8.94461e-08 
-0.25 -0.682096 -8.94461e-08 
-0.25 -0.682096 -0.75 
-0.5 -0.682096 -0.75 
-0.5 -0.682096 -0.5 
-0.25 -0.682096 -0.5 
-0.75 0.566521 -0.75 
-1 0.566521 -0.75 
-1 -0.682096 -0.5 
-0.75 -0.682096 -0.5 
-0.5 -0.682096 0.75 
-0.75 0.566521 0.75 
-0.75 0.566521 1 
-0.5 -0.682096 1 
-0.5 -0.682096 0.5 
-0.75 -0.682096 0.5 
-0.75 0.566521 0.75 
-0.5 -0.682096 0.75 
-0.75 -0.682096 0.5 
-1 -0.682096 0.5 
-1 0.566521 0.75 
-0.75 0.566521 0.75 
0.5 -0.682096 0.75 
0.499999 -0.682096 1 
0.5 -0.682096 -0.5 
-0.75 -0.682096 -0.5 
-1 -0.682096 -0.5 
1 0.566521 0.750001 
0.75 0.566521 0.75 
0.749999 0.566521 1 
0.999999 0.566521 1 
1 -0.682096 0.500001 
0.75 -0.682096 0.5 
0.75 0.566521 0.75 
1 0.566521 0.750001 
0.75 -0.682096 0.5 
0.5 -0.682096 0.5 
0.5 -0.682096 0.75 
0.75 0.566521 0.75 
1 -0.682096 0.250001 
1 -0.682096 0.500001 
1 -0.682096 9.10554e-07 
1 -0.682096 -0.249999 
1 -0.682096 -0.499999 
0.75 -0.682096 -0.5 
1 0.566521 -0.749999 
0.75 0.566521 -0.75 
0.75 -0.682096 -0.5 
1 -0.682096 -0.499999 
1 0.566521 -0.999999 
0.75 0.566521 -1 
0.75 0.566521 -0.75 
1 0.566521 -0.749999 
0.75 0.566521 -1 
0.5 -0.682096 -1 
0.5 -0.682096 -0.75 
0.75 0.566521 -0.75 
0.5 -0.682096 -0.75 
0.5 -0.682096 -1 
0.25 -0.682096 -1 
0 -0.682096 -1 
-0.25 -0.682096 -1 
-0.5 -0.682096 -1 
-0.5 -0.682096 -0.75 
-0.75 0.566521 -0.75 
-0.75 -0.682096 -0.5 
-0.5 -0.682096 -0.5 
-0.5 -0.682096 -1 
-0.75 0.566521 -1 
-0.75 0.566521 -0.75 
-0.5 -0.682096 -0.75 
-0.75 0.566521 -1 
-1 0.566521 -1 
-1 0.566521 -0.75 
-0.75 0.566521 -0.75 
3 0 1 2 
3 0 2 3 
3 4 5 6 
3 4 6 7 
3 8 9 10 
3 11 12 13 
3 9 14 10 
3 15 16 17 
3 18 19 20 
3 19 21 20 
3 21 22 20 
3 23 24 25 
3 26 27 28 
3 29 30 31 
3 32 29 31 
3 33 34 35 
3 36 33 35 
3 37 38 39 
3 40 37 39 
3 41 40 39 
3 42 41 39 
3 43 44 45 
3 46 47 48 
3 49 50 51 
3 52 53 54 
3 55 56 52 
3 46 57 58 
3 46 59 57 
3 55 60 61 
3 55 62 60 
3 55 63 62 
3 64 65 66 
3 67 68 69 
3 67 69 70 
3 67 70 71 
3 67 71 72 
3 67 72 73 
3 74 75 76 
3 77 78 79 
3 74 76 80 
3 81 82 83 
3 81 83 84 
3 85 86 87 
3 85 87 88 
3 89 90 91 
3 89 91 92 
3 93 94 95 
3 93 95 96 
3 97 98 99 
3 97 99 100 
3 101 102 103 
3 101 103 104 
3 105 106 107 
3 105 107 108 
3 109 110 111 
3 109 111 112 
3 113 114 115 
3 113 115 116 
3 117 118 119 
3 117 119 120 
3 121 122 123 
3 121 123 124 
3 125 126 127 
3 125 127 128 
3 129 130 131 
3 129 131 132 
3 133 134 135 
3 133 135 136 
3 137 138 139 
3 137 139 140 
3 141 142 143 
3 141 143 144 
3 145 146 147 
3 145 147 148 
3 149 150 151 
3 149 151 152 
3 153 81 84 
3 153 84 154 
3 111 116 81 
3 111 81 153 
3 116 115 82 
3 116 82 81 
3 118 85 88 
3 118 88 119 
3 155 128 85 
3 155 85 118 
3 128 127 86 
3 128 86 85 
3 130 89 92 
3 130 92 131 
3 135 156 89 
3 135 89 130 
3 156 157 90 
3 156 90 89 
3 82 93 96 
3 82 96 83 
3 115 100 93 
3 115 93 82 
3 100 99 94 
3 100 94 93 
3 114 97 100 
3 114 100 115 
3 87 132 97 
3 87 97 114 
3 132 131 98 
3 132 98 97 
3 98 101 104 
3 98 104 99 
3 131 92 101 
3 131 101 98 
3 92 91 102 
3 92 102 101 
3 158 159 160 
3 158 160 161 
3 162 163 164 
3 162 164 165 
3 166 167 168 
3 166 168 169 
3 170 109 112 
3 170 112 171 
3 172 120 109 
3 172 109 170 
3 120 119 110 
3 120 110 109 
3 110 113 116 
3 110 116 111 
3 119 88 113 
3 119 113 110 
3 88 87 114 
3 88 114 113 
3 173 117 120 
3 173 120 172 
3 174 175 117 
3 174 117 173 
3 175 155 118 
3 175 118 117 
3 176 177 178 
3 176 178 179 
3 180 181 182 
3 180 182 183 
3 184 185 186 
3 184 186 187 
3 188 125 128 
3 188 128 155 
3 189 190 125 
3 189 125 188 
3 190 191 126 
3 190 126 125 
3 86 129 132 
3 86 132 87 
3 127 136 129 
3 127 129 86 
3 136 135 130 
3 136 130 129 
3 126 133 136 
3 126 136 127 
3 191 192 133 
3 191 133 126 
3 192 193 134 
3 192 134 133 
3 194 195 196 
3 194 196 197 
3 198 199 200 
3 198 200 201 
3 202 203 204 
3 202 204 205 
