ply
format ascii 1.0
comment VCGLIB generated
element vertex 633
property float x
property float y
property float z
element face 800
property list uchar int vertex_indices
end_header
0.75 -0.895495 -3.90536 
1 -0.895495 -3.90536 
1 -1 -3.90536 
0.75 -1 -3.90536 
0.75 -0.895496 3.90536 
0.75 -1 3.90536 
1 -1 3.90536 
1 -0.895496 3.90536 
0.75 -0.163964 2.92902 
0.750001 -0.163964 3.90536 
1 -0.163964 3.90536 
1 -0.163964 2.92902 
1 -0.895496 2.92902 
1 -0.895496 3.90536 
1 -1 3.90536 
1 -1 2.92902 
-0.75 -1 2.92902 
-0.75 -1 3.90536 
-1 -1 3.90536 
-1 -1 2.92902 
-1 -0.895495 -2.92902 
-1 -0.895495 -3.90536 
-1 -1 -3.90536 
-1 -1 -2.92902 
-0.25 -0.895495 -3.90536 
3.91433e-08 -0.895495 -3.90536 
4.37114e-08 -1 -3.90536 
-0.25 -1 -3.90536 
-0.25 -0.477477 -3.90536 
2.08712e-08 -0.477477 -3.90536 
2.54392e-08 -0.581981 -3.90536 
-0.25 -0.581981 -3.90536 
0.75 -0.477477 -3.90536 
1 -0.477477 -3.90536 
1 -0.581982 -3.90536 
0.75 -0.581982 -3.90536 
0.75 -0.477477 3.90536 
0.75 -0.581982 3.90536 
1 -0.581982 3.90536 
1 -0.477477 3.90536 
-0.25 -0.477477 3.90536 
-0.25 -0.581982 3.90536 
2.54392e-08 -0.581982 3.90536 
2.08712e-08 -0.477477 3.90536 
-0.25 -0.895495 3.90536 
-0.25 -1 3.90536 
4.37114e-08 -1 3.90536 
3.91434e-08 -0.895496 3.90536 
0.75 -0.163963 -0.976339 
0.75 -0.163963 0 
1 -0.163963 0 
1 -0.163963 -0.976339 
-0.25 -0.163963 -0.976339 
-0.25 -0.163963 0 
7.16705e-09 -0.163963 0 
7.16705e-09 -0.163963 -0.976339 
-0.25 -0.163963 2.92902 
-0.249999 -0.163963 3.90536 
1.00717e-06 -0.163963 3.90536 
7.16705e-09 -0.163963 2.92902 
1 -0.895496 -0.976339 
1 -0.895496 0 
1 -1 0 
1 -1 -0.976339 
1 -0.477477 -0.976339 
1 -0.477477 0 
1 -0.581982 0 
1 -0.581982 -0.976339 
1 -0.477477 2.92902 
1 -0.477477 3.90536 
1 -0.581982 3.90536 
1 -0.581982 2.92902 
-0.75 -1 -0.976339 
-0.75 -1 0 
-1 -1 0 
-1 -1 -0.976339 
0.25 -1 -0.976339 
0.25 -1 0 
4.37114e-08 -1 0 
4.37114e-08 -1 -0.976339 
0.25 -1 2.92902 
0.25 -1 3.90536 
4.37114e-08 -1 3.90536 
4.37114e-08 -1 2.92902 
-1 -0.895495 0.976339 
-1 -0.895495 0 
-1 -1 0 
-1 -1 0.976339 
-1 -0.477477 0.976339 
-1 -0.477477 0 
-1 -0.581981 0 
-1 -0.581981 0.976339 
-1 -0.477477 -2.92902 
-1 -0.477477 -3.90536 
-1 -0.581981 -3.90536 
-1 -0.581981 -2.92902 
0.25 -0.895495 -3.90536 
0.5 -0.895495 -3.90536 
0.5 -1 -3.90536 
0.25 -1 -3.90536 
0.25 -0.686486 -3.90536 
0.5 -0.686486 -3.90536 
0.5 -0.790991 -3.90536 
0.25 -0.790991 -3.90536 
0.75 -0.686486 -3.90536 
1 -0.686486 -3.90536 
1 -0.790991 -3.90536 
0.75 -0.790991 -3.90536 
0.75 -0.686487 3.90536 
0.75 -0.790991 3.90536 
1 -0.790991 3.90536 
1 -0.686487 3.90536 
0.25 -0.686486 3.90536 
0.25 -0.790991 3.90536 
0.5 -0.790991 3.90536 
0.5 -0.686486 3.90536 
0.25 -0.895496 3.90536 
0.25 -1 3.90536 
0.5 -1 3.90536 
0.5 -0.895496 3.90536 
0.75 -0.163963 0.976339 
0.75 -0.163963 1.95268 
1 -0.163964 1.95268 
1 -0.163963 0.976339 
0.25 -0.163963 0.976339 
0.25 -0.163963 1.95268 
0.5 -0.163963 1.95268 
0.5 -0.163963 0.976339 
0.25 -0.163963 2.92902 
0.250001 -0.163963 3.90536 
0.500001 -0.163963 3.90536 
0.5 -0.163963 2.92902 
1 -0.895496 0.976339 
1 -0.895496 1.95268 
1 -1 1.95268 
1 -1 0.976339 
1 -0.686486 0.976339 
1 -0.686486 1.95268 
1 -0.790991 1.95268 
1 -0.790991 0.976339 
1 -0.686487 2.92902 
1 -0.686487 3.90536 
1 -0.790991 3.90536 
1 -0.790991 2.92902 
-0.75 -1 0.976339 
-0.75 -1 1.95268 
-1 -1 1.95268 
-1 -1 0.976339 
-0.25 -1 0.976339 
-0.25 -1 1.95268 
-0.5 -1 1.95268 
-0.5 -1 0.976339 
-0.25 -1 2.92902 
-0.25 -1 3.90536 
-0.5 -1 3.90536 
-0.5 -1 2.92902 
-1 -0.895495 -0.976339 
-1 -0.895495 -1.95268 
-1 -1 -1.95268 
-1 -1 -0.976339 
-1 -0.686486 -0.976339 
-1 -0.686486 -1.95268 
-1 -0.79099 -1.95268 
-1 -0.79099 -0.976339 
-1 -0.686486 -2.92902 
-1 -0.686486 -3.90536 
-1 -0.79099 -3.90536 
-1 -0.79099 -2.92902 
-0.75 -0.895495 -3.90536 
-0.5 -0.895495 -3.90536 
-0.5 -1 -3.90536 
-0.75 -1 -3.90536 
-0.75 -0.686486 -3.90536 
-0.5 -0.686486 -3.90536 
-0.5 -0.790991 -3.90536 
-0.75 -0.790991 -3.90536 
-0.25 -0.686486 -3.90536 
3.00073e-08 -0.686486 -3.90536 
3.45753e-08 -0.790991 -3.90536 
-0.25 -0.790991 -3.90536 
-0.75 -0.477477 -3.90536 
-0.5 -0.477477 -3.90536 
-0.5 -0.581981 -3.90536 
-0.75 -0.581981 -3.90536 
-0.75 -0.268468 -3.90536 
-0.5 -0.268468 -3.90536 
-0.5 -0.372972 -3.90536 
-0.75 -0.372972 -3.90536 
-0.25 -0.268468 -3.90536 
1.17351e-08 -0.268468 -3.90536 
1.63031e-08 -0.372972 -3.90536 
-0.25 -0.372972 -3.90536 
0.25 -0.477477 -3.90536 
0.5 -0.477477 -3.90536 
0.5 -0.581982 -3.90536 
0.25 -0.581982 -3.90536 
0.25 -0.268468 -3.90536 
0.5 -0.268468 -3.90536 
0.5 -0.372972 -3.90536 
0.25 -0.372972 -3.90536 
0.75 -0.268468 -3.90536 
1 -0.268468 -3.90536 
1 -0.372972 -3.90536 
0.75 -0.372972 -3.90536 
0.75 -0.268468 3.90536 
0.75 -0.372973 3.90536 
1 -0.372973 3.90536 
1 -0.268468 3.90536 
0.25 -0.268468 3.90536 
0.25 -0.372973 3.90536 
0.5 -0.372973 3.90536 
0.5 -0.268468 3.90536 
0.25 -0.477477 3.90536 
0.25 -0.581982 3.90536 
0.5 -0.581982 3.90536 
0.5 -0.477477 3.90536 
-0.25 -0.268468 3.90536 
-0.25 -0.372972 3.90536 
1.63031e-08 -0.372972 3.90536 
1.17351e-08 -0.268468 3.90536 
-0.75 -0.268467 3.90536 
-0.75 -0.372972 3.90536 
-0.5 -0.372972 3.90536 
-0.5 -0.268468 3.90536 
-0.75 -0.477477 3.90536 
-0.75 -0.581981 3.90536 
-0.5 -0.581981 3.90536 
-0.5 -0.477477 3.90536 
-0.25 -0.686486 3.90536 
-0.25 -0.790991 3.90536 
3.45753e-08 -0.790991 3.90536 
3.00073e-08 -0.686486 3.90536 
-0.75 -0.686486 3.90536 
-0.75 -0.790991 3.90536 
-0.5 -0.790991 3.90536 
-0.5 -0.686486 3.90536 
-0.75 -0.895495 3.90536 
-0.75 -1 3.90536 
-0.5 -1 3.90536 
-0.5 -0.895495 3.90536 
0.75 -0.163963 -2.92902 
0.75 -0.163963 -1.95268 
1 -0.163963 -1.95268 
1 -0.163963 -2.92902 
0.25 -0.163963 -2.92902 
0.25 -0.163963 -1.95268 
0.5 -0.163963 -1.95268 
0.5 -0.163963 -2.92902 
0.25 -0.163963 -0.976339 
0.25 -0.163963 0 
0.5 -0.163963 0 
0.5 -0.163963 -0.976339 
-0.25 -0.163963 -2.92902 
-0.25 -0.163963 -1.95268 
7.16705e-09 -0.163963 -1.95268 
7.16705e-09 -0.163963 -2.92902 
-0.5 -0.163963 -1.95268 
-0.5 -0.163963 -2.92902 
-0.499999 3.26248 -2.92902 
-0.499999 3.26248 -1.95268 
-0.75 -0.163963 -0.976339 
-0.75 -0.163963 0 
-0.5 -0.163963 0 
-0.5 -0.163963 -0.976339 
-0.25 -0.163963 0.976339 
-0.25 -0.163963 1.95268 
7.16705e-09 -0.163963 1.95268 
7.16705e-09 -0.163963 0.976339 
-0.75 -0.163963 0.976339 
-0.75 -0.163963 1.95268 
-0.5 -0.163963 1.95268 
-0.5 -0.163963 0.976339 
-0.75 -0.163963 2.92902 
-0.749999 -0.163963 3.90536 
-0.499999 -0.163963 3.90536 
-0.5 -0.163963 2.92902 
1 -0.895496 -2.92902 
1 -0.895496 -1.95268 
1 -1 -1.95268 
1 -1 -2.92902 
1 -0.686486 -2.92902 
1 -0.686486 -1.95268 
1 -0.790991 -1.95268 
1 -0.790991 -2.92902 
1 -0.686486 -0.976339 
1 -0.686486 0 
1 -0.790991 0 
1 -0.790991 -0.976339 
1 -0.477477 -2.92902 
1 -0.477477 -1.95268 
1 -0.581982 -1.95268 
1 -0.581982 -2.92902 
1 -0.268468 -2.92902 
1 -0.268468 -1.95268 
1 -0.372972 -1.95268 
1 -0.372972 -2.92902 
1 -0.268468 -0.976339 
1 -0.268468 0 
1 -0.372973 0 
1 -0.372973 -0.976339 
1 -0.477477 0.976339 
1 -0.477477 1.95268 
1 -0.581982 1.95268 
1 -0.581982 0.976339 
1 -0.268468 0.976339 
1 -0.268468 1.95268 
1 -0.372973 1.95268 
1 -0.372973 0.976339 
1 -0.268468 2.92902 
1 -0.268468 3.90536 
1 -0.372973 3.90536 
1 -0.372973 2.92902 
-0.75 -1 -2.92902 
-0.75 -1 -1.95268 
-1 -1 -1.95268 
-1 -1 -2.92902 
-0.25 -1 -2.92902 
-0.25 -1 -1.95268 
-0.5 -1 -1.95268 
-0.5 -1 -2.92902 
-0.25 -1 -0.976339 
-0.25 -1 0 
-0.5 -1 0 
-0.5 -1 -0.976339 
0.25 -1 -2.92902 
0.25 -1 -1.95268 
4.37114e-08 -1 -1.95268 
4.37114e-08 -1 -2.92902 
0.75 -1 -2.92902 
0.75 -1 -1.95268 
0.5 -1 -1.95268 
0.5 -1 -2.92902 
0.75 -1 -0.976339 
0.75 -1 0 
0.5 -1 0 
0.5 -1 -0.976339 
0.25 -1 0.976339 
0.25 -1 1.95268 
4.37114e-08 -1 1.95268 
4.37114e-08 -1 0.976339 
0.75 -1 0.976339 
0.75 -1 1.95268 
0.5 -1 1.95268 
0.5 -1 0.976339 
0.75 -1 2.92902 
0.75 -1 3.90536 
0.5 -1 3.90536 
0.5 -1 2.92902 
-1 -0.895495 2.92902 
-1 -0.895495 1.95268 
-1 -1 1.95268 
-1 -1 2.92902 
-1 -0.686486 2.92902 
-1 -0.686486 1.95268 
-1 -0.790991 1.95268 
-1 -0.790991 2.92902 
-1 -0.686486 0.976339 
-1 -0.686486 0 
-1 -0.790991 0 
-1 -0.790991 0.976339 
-1 -0.477477 2.92902 
-1 -0.477477 1.95268 
-1 -0.581981 1.95268 
-1 -0.581981 2.92902 
-1 -0.268467 2.92902 
-1 -0.268467 1.95268 
-1 -0.372972 1.95268 
-1 -0.372972 2.92902 
-1 -0.268467 0.976339 
-1 -0.268467 0 
-1 -0.372972 0 
-1 -0.372972 0.976339 
-1 -0.477477 -0.976339 
-1 -0.477477 -1.95268 
-1 -0.581981 -1.95268 
-1 -0.581981 -0.976339 
-1 -0.268467 -0.976339 
-1 -0.268468 -1.95268 
-1 -0.372972 -1.95268 
-1 -0.372972 -0.976339 
-1 -0.268468 -2.92902 
-1 -0.268468 -3.90536 
-1 -0.372972 -3.90536 
-1 -0.372972 -2.92902 
0.75 -0.163964 2.92902 
1 -0.163964 2.92902 
-0.5 -0.163963 2.92902 
-0.5 -0.163963 1.95268 
-0.499999 3.26248 1.95268 
-0.499999 3.26248 2.92902 
-1 -0.895495 -2.92902 
-1 -1 -2.92902 
-1 -0.895495 -1.95268 
-1 -0.79099 -2.92902 
-1 -0.79099 -3.90536 
-1 -0.895495 -3.90536 
-0.5 -0.163963 -1.95268 
-0.25 -0.163963 2.92902 
7.16705e-09 -0.163963 2.92902 
-0.5 -0.163963 2.92902 
1 -0.790991 -1.95268 
1 -0.477477 -1.95268 
1 -0.581982 -1.95268 
1 -0.372973 -0.976339 
1 -0.477477 0 
1 -0.477477 -0.976339 
-1 -0.477477 -1.95268 
-1 -0.477477 -2.92902 
-1 -0.581981 -2.92902 
-1 -0.581981 -1.95268 
-1 -0.372972 -1.95268 
-1 -0.372972 -2.92902 
-1 -0.477477 -3.90536 
0.25 -0.163963 2.92902 
0.5 -0.163963 2.92902 
1 -0.581982 0 
-1 -0.895495 0 
-1 -1 0 
-1 -0.895495 -0.976339 
-1 -0.581981 0 
-1 -0.581981 -0.976339 
-1 -0.686486 -0.976339 
-1 -0.686486 0 
-1 -0.686486 -1.95268 
-1 -0.895495 -3.90536 
-1 -1 -3.90536 
-1 -0.79099 -3.90536 
-1 -0.686486 -3.90536 
-1 -0.581981 -3.90536 
-1 -0.477477 -3.90536 
-1 -0.372972 -3.90536 
-1 -0.268468 -3.90536 
-1 -0.163963 -3.90536 
-0.75 -0.163963 -3.90536 
-0.5 -0.163963 -3.90536 
-0.25 -0.163963 -3.90536 
7.16705e-09 -0.163963 -3.90536 
0.25 -0.163963 -3.90536 
0.5 -0.163963 -3.90536 
0.75 -0.163963 -3.90536 
1 -0.163963 -3.90536 
0.750001 -0.163964 3.90536 
1 -0.163964 3.90536 
0.500001 -0.163963 3.90536 
0.250001 -0.163963 3.90536 
1.00717e-06 -0.163963 3.90536 
-0.249999 -0.163963 3.90536 
-0.499999 -0.163963 3.90536 
-0.749999 -0.163963 3.90536 
-0.999999 -0.163963 3.90536 
-1 -0.268467 3.90536 
-1 -0.372972 3.90536 
-1 -0.477477 3.90536 
-1 -0.581981 3.90536 
-1 -0.686486 3.90536 
-1 -0.790991 3.90536 
-1 -0.895495 3.90536 
-1 -1 3.90536 
0.75 -0.163963 -3.90536 
1 -0.163963 -3.90536 
0.5 -0.163963 -3.90536 
-0.75 -0.163963 -2.92902 
-0.75 -0.163963 -1.95268 
-0.749999 3.26248 -1.95268 
-0.749999 3.26248 -2.92902 
0.25 -0.163963 -3.90536 
7.16705e-09 -0.163963 -3.90536 
-0.25 -0.163963 -3.90536 
-0.5 -0.163963 -3.90536 
-0.5 -0.163963 -2.92902 
-0.75 -0.163963 -3.90536 
-0.75 -0.163963 -2.92902 
-1 -0.163963 -3.90536 
-1 -0.163963 -2.92902 
-1 -0.163963 -1.95268 
-0.75 -0.163963 -1.95268 
-1 -0.163963 -0.976339 
-1 -0.163963 0 
-1 -0.163963 0.976339 
-1 -0.163963 1.95268 
-0.75 -0.163963 2.92902 
-0.5 -0.163963 2.92902 
-0.499999 3.26248 2.92902 
-0.749999 3.26248 2.92902 
-1 -0.163963 2.92902 
-0.75 -0.163963 2.92902 
-1 -0.163963 2.92902 
-0.999999 -0.163963 3.90536 
1 -0.895495 -3.90536 
1 -1 -3.90536 
1 -0.790991 -3.90536 
1 -0.895496 -2.92902 
1 -0.895495 -3.90536 
1 -0.790991 -2.92902 
1 -0.686486 -3.90536 
1 -0.581982 -3.90536 
1 -0.581982 -2.92902 
1 -0.686486 -0.976339 
1 -0.790991 -0.976339 
1 -0.581982 -0.976339 
1 -0.686486 -1.95268 
1 -0.477477 -3.90536 
1 -0.477477 -2.92902 
1 -0.372972 -3.90536 
1 -0.372972 -2.92902 
1 -0.477477 -3.90536 
1 -0.268468 -3.90536 
1 -0.372972 -3.90536 
1 -0.163963 -3.90536 
1 -0.163963 -2.92902 
1 -0.163963 -2.92902 
1 -0.163963 -1.95268 
1 -0.268468 -1.95268 
1 -0.268468 -2.92902 
1 -0.372972 -1.95268 
1 -0.163963 -0.976339 
1 -0.163963 0 
1 -0.163963 0.976339 
1 -0.163964 1.95268 
1 -0.163964 2.92902 
1 -0.163964 3.90536 
-0.75 -1 -3.90536 
-1 -1 -3.90536 
-0.5 -1 -3.90536 
-0.25 -1 -3.90536 
4.37114e-08 -1 -3.90536 
0.25 -1 -3.90536 
0.5 -1 -3.90536 
0.75 -1 -3.90536 
1 -1 -3.90536 
1 -1 -2.92902 
1 -1 -1.95268 
1 -1 -0.976339 
1 -1 0 
1 -1 0.976339 
1 -1 1.95268 
1 -1 2.92902 
1 -1 3.90536 
-1 -0.895495 3.90536 
-1 -0.895495 2.92902 
-1 -1 2.92902 
-1 -1 3.90536 
-1 -0.790991 3.90536 
-1 -0.895495 3.90536 
-1 -0.790991 2.92902 
-1 -0.790991 1.95268 
-1 -0.895495 1.95268 
-1 -0.686486 3.90536 
-1 -0.581981 3.90536 
-1 -0.686486 1.95268 
-1 -0.686486 0.976339 
-1 -0.790991 0.976339 
-1 -0.581981 0.976339 
-1 -0.477477 3.90536 
-1 -0.372972 3.90536 
-1 -0.268467 3.90536 
-0.999999 -0.163963 3.90536 
-1 -0.163963 2.92902 
-1 -0.163963 1.95268 
-1 -0.163963 0.976339 
-1 -0.163963 0 
-1 -0.372972 -0.976339 
-1 -0.268467 -0.976339 
-1 -0.163963 -0.976339 
-1 -0.163963 -1.95268 
-1 -0.268468 -1.95268 
-1 -0.163963 -1.95268 
-1 -0.163963 -2.92902 
-1 -0.163963 -3.90536 
-0.749999 3.26248 -2.92902 
-0.749999 3.26248 -1.95268 
-0.499999 3.26248 -1.95268 
-0.499999 3.26248 -2.92902 
0.500001 3.26248 1.95268 
0.500001 3.26248 2.92902 
0.750001 3.26248 2.92902 
0.750001 3.26248 1.95268 
0.500001 3.26248 -2.92902 
0.500001 3.26248 -1.95268 
0.750001 3.26248 -1.95268 
0.750001 3.26248 -2.92902 
-0.749999 3.26248 1.95268 
-0.749999 3.26248 2.92902 
-0.499999 3.26248 2.92902 
-0.499999 3.26248 1.95268 
0.75 -0.163963 1.95268 
0.5 -0.163963 1.95268 
0.500001 3.26248 1.95268 
0.750001 3.26248 1.95268 
0.5 -0.163963 1.95268 
0.5 -0.163963 2.92902 
0.500001 3.26248 2.92902 
0.500001 3.26248 1.95268 
0.5 -0.163963 -2.92902 
0.5 -0.163963 -1.95268 
0.500001 3.26248 -1.95268 
0.500001 3.26248 -2.92902 
0.5 -0.163963 2.92902 
0.75 -0.163964 2.92902 
0.750001 3.26248 2.92902 
0.500001 3.26248 2.92902 
0.5 -0.163963 -1.95268 
0.75 -0.163963 -1.95268 
0.750001 3.26248 -1.95268 
0.500001 3.26248 -1.95268 
-0.5 -0.163963 1.95268 
-0.75 -0.163963 1.95268 
-0.749999 3.26248 1.95268 
-0.499999 3.26248 1.95268 
-0.5 -0.163963 -2.92902 
-0.75 -0.163963 -2.92902 
-0.749999 3.26248 -2.92902 
-0.499999 3.26248 -2.92902 
-0.75 -0.163963 -1.95268 
-0.5 -0.163963 -1.95268 
-0.499999 3.26248 -1.95268 
-0.749999 3.26248 -1.95268 
0.75 -0.163963 -1.95268 
0.75 -0.163963 -2.92902 
0.750001 3.26248 -2.92902 
0.750001 3.26248 -1.95268 
0.75 -0.163964 2.92902 
0.75 -0.163963 1.95268 
0.750001 3.26248 1.95268 
0.750001 3.26248 2.92902 
0.75 -0.163963 -2.92902 
0.5 -0.163963 -2.92902 
0.500001 3.26248 -2.92902 
0.750001 3.26248 -2.92902 
-0.75 -0.163963 1.95268 
-0.75 -0.163963 2.92902 
-0.749999 3.26248 2.92902 
-0.749999 3.26248 1.95268 
3 0 1 2 
3 0 2 3 
3 4 5 6 
3 4 6 7 
3 8 9 10 
3 8 10 11 
3 12 13 14 
3 12 14 15 
3 16 17 18 
3 16 18 19 
3 20 21 22 
3 20 22 23 
3 24 25 26 
3 24 26 27 
3 28 29 30 
3 28 30 31 
3 32 33 34 
3 32 34 35 
3 36 37 38 
3 36 38 39 
3 40 41 42 
3 40 42 43 
3 44 45 46 
3 44 46 47 
3 48 49 50 
3 48 50 51 
3 52 53 54 
3 52 54 55 
3 56 57 58 
3 56 58 59 
3 60 61 62 
3 60 62 63 
3 64 65 66 
3 64 66 67 
3 68 69 70 
3 68 70 71 
3 72 73 74 
3 72 74 75 
3 76 77 78 
3 76 78 79 
3 80 81 82 
3 80 82 83 
3 84 85 86 
3 84 86 87 
3 88 89 90 
3 88 90 91 
3 92 93 94 
3 92 94 95 
3 96 97 98 
3 96 98 99 
3 100 101 102 
3 100 102 103 
3 104 105 106 
3 104 106 107 
3 108 109 110 
3 108 110 111 
3 112 113 114 
3 112 114 115 
3 116 117 118 
3 116 118 119 
3 120 121 122 
3 120 122 123 
3 124 125 126 
3 124 126 127 
3 128 129 130 
3 128 130 131 
3 132 133 134 
3 132 134 135 
3 136 137 138 
3 136 138 139 
3 140 141 142 
3 140 142 143 
3 144 145 146 
3 144 146 147 
3 148 149 150 
3 148 150 151 
3 152 153 154 
3 152 154 155 
3 156 157 158 
3 156 158 159 
3 160 161 162 
3 160 162 163 
3 164 165 166 
3 164 166 167 
3 168 169 170 
3 168 170 171 
3 172 173 174 
3 172 174 175 
3 176 177 178 
3 176 178 179 
3 180 181 182 
3 180 182 183 
3 184 185 186 
3 184 186 187 
3 188 189 190 
3 188 190 191 
3 192 193 194 
3 192 194 195 
3 196 197 198 
3 196 198 199 
3 200 201 202 
3 200 202 203 
3 204 205 206 
3 204 206 207 
3 208 209 210 
3 208 210 211 
3 212 213 214 
3 212 214 215 
3 216 217 218 
3 216 218 219 
3 220 221 222 
3 220 222 223 
3 224 225 226 
3 224 226 227 
3 228 229 230 
3 228 230 231 
3 232 233 234 
3 232 234 235 
3 236 237 238 
3 236 238 239 
3 240 241 242 
3 240 242 243 
3 244 245 246 
3 244 246 247 
3 248 249 250 
3 248 250 251 
3 252 253 254 
3 252 254 255 
3 256 257 258 
3 256 258 259 
3 260 261 262 
3 260 262 263 
3 264 265 266 
3 264 266 267 
3 268 269 270 
3 268 270 271 
3 272 273 274 
3 272 274 275 
3 276 277 278 
3 276 278 279 
3 280 281 282 
3 280 282 283 
3 284 285 286 
3 284 286 287 
3 288 289 290 
3 288 290 291 
3 292 293 294 
3 292 294 295 
3 296 297 298 
3 296 298 299 
3 300 301 302 
3 300 302 303 
3 304 305 306 
3 304 306 307 
3 308 309 310 
3 308 310 311 
3 312 313 314 
3 312 314 315 
3 316 317 318 
3 316 318 319 
3 320 321 322 
3 320 322 323 
3 324 325 326 
3 324 326 327 
3 328 329 330 
3 328 330 331 
3 332 333 334 
3 332 334 335 
3 336 337 338 
3 336 338 339 
3 340 341 342 
3 340 342 343 
3 344 345 346 
3 344 346 347 
3 348 349 350 
3 348 350 351 
3 352 353 354 
3 352 354 355 
3 356 357 358 
3 356 358 359 
3 360 361 362 
3 360 362 363 
3 364 365 366 
3 364 366 367 
3 368 369 370 
3 368 370 371 
3 372 373 374 
3 372 374 375 
3 376 377 378 
3 376 378 379 
3 380 381 382 
3 380 382 383 
3 97 0 3 
3 97 3 98 
3 102 107 0 
3 102 0 97 
3 107 106 1 
3 107 1 0 
3 109 4 7 
3 109 7 110 
3 114 119 4 
3 114 4 109 
3 119 118 5 
3 119 5 4 
3 121 384 385 
3 121 385 122 
3 386 387 388 
3 386 388 389 
3 131 130 9 
3 131 9 8 
3 133 12 15 
3 133 15 134 
3 138 143 12 
3 138 12 133 
3 143 142 13 
3 143 13 12 
3 145 16 19 
3 145 19 146 
3 150 155 16 
3 150 16 145 
3 155 154 17 
3 155 17 16 
3 157 390 391 
3 157 391 158 
3 162 167 20 
3 162 20 392 
3 393 394 395 
3 393 395 390 
3 169 24 27 
3 169 27 170 
3 174 179 24 
3 174 24 169 
3 179 178 25 
3 179 25 24 
3 181 28 31 
3 181 31 182 
3 186 191 28 
3 186 28 181 
3 191 190 29 
3 191 29 28 
3 193 32 35 
3 193 35 194 
3 198 203 32 
3 198 32 193 
3 203 202 33 
3 203 33 32 
3 205 36 39 
3 205 39 206 
3 210 215 36 
3 210 36 205 
3 215 214 37 
3 215 37 36 
3 217 40 43 
3 217 43 218 
3 222 227 40 
3 222 40 217 
3 227 226 41 
3 227 41 40 
3 229 44 47 
3 229 47 230 
3 234 239 44 
3 234 44 229 
3 239 238 45 
3 239 45 44 
3 241 48 51 
3 241 51 242 
3 246 251 48 
3 246 48 241 
3 251 250 49 
3 251 49 48 
3 253 52 55 
3 253 55 254 
3 396 263 52 
3 396 52 253 
3 263 262 53 
3 263 53 52 
3 265 397 398 
3 265 398 266 
3 270 399 397 
3 270 397 265 
3 275 274 57 
3 275 57 56 
3 277 60 63 
3 277 63 278 
3 400 287 60 
3 400 60 277 
3 287 286 61 
3 287 61 60 
3 401 64 67 
3 401 67 402 
3 294 403 64 
3 294 64 401 
3 299 298 404 
3 299 404 405 
3 301 68 71 
3 301 71 302 
3 306 311 68 
3 306 68 301 
3 311 310 69 
3 311 69 68 
3 313 72 75 
3 313 75 314 
3 318 323 72 
3 318 72 313 
3 323 322 73 
3 323 73 72 
3 325 76 79 
3 325 79 326 
3 330 335 76 
3 330 76 325 
3 335 334 77 
3 335 77 76 
3 337 80 83 
3 337 83 338 
3 342 347 80 
3 342 80 337 
3 347 346 81 
3 347 81 80 
3 349 84 87 
3 349 87 350 
3 354 359 84 
3 354 84 349 
3 359 358 85 
3 359 85 84 
3 361 88 91 
3 361 91 362 
3 366 371 88 
3 366 88 361 
3 371 370 89 
3 371 89 88 
3 406 407 408 
3 406 408 409 
3 410 411 92 
3 410 92 373 
3 383 382 412 
3 383 412 407 
3 25 96 99 
3 25 99 26 
3 178 103 96 
3 178 96 25 
3 103 102 97 
3 103 97 96 
3 177 100 103 
3 177 103 178 
3 30 195 100 
3 30 100 177 
3 195 194 101 
3 195 101 100 
3 101 104 107 
3 101 107 102 
3 194 35 104 
3 194 104 101 
3 35 34 105 
3 35 105 104 
3 37 108 111 
3 37 111 38 
3 214 115 108 
3 214 108 37 
3 115 114 109 
3 115 109 108 
3 213 112 115 
3 213 115 214 
3 42 231 112 
3 42 112 213 
3 231 230 113 
3 231 113 112 
3 113 116 119 
3 113 119 114 
3 230 47 116 
3 230 116 113 
3 47 46 117 
3 47 117 116 
3 49 120 123 
3 49 123 50 
3 250 127 120 
3 250 120 49 
3 127 126 121 
3 127 121 120 
3 249 124 127 
3 249 127 250 
3 54 267 124 
3 54 124 249 
3 267 266 125 
3 267 125 124 
3 125 413 414 
3 125 414 126 
3 266 398 413 
3 266 413 125 
3 59 58 129 
3 59 129 128 
3 61 132 135 
3 61 135 62 
3 286 139 132 
3 286 132 61 
3 139 138 133 
3 139 133 132 
3 285 136 139 
3 285 139 286 
3 415 303 136 
3 415 136 285 
3 303 302 137 
3 303 137 136 
3 137 140 143 
3 137 143 138 
3 302 71 140 
3 302 140 137 
3 71 70 141 
3 71 141 140 
3 73 144 147 
3 73 147 74 
3 322 151 144 
3 322 144 73 
3 151 150 145 
3 151 145 144 
3 321 148 151 
3 321 151 322 
3 78 339 148 
3 78 148 321 
3 339 338 149 
3 339 149 148 
3 149 152 155 
3 149 155 150 
3 338 83 152 
3 338 152 149 
3 83 82 153 
3 83 153 152 
3 416 156 159 
3 416 159 417 
3 358 163 418 
3 358 418 85 
3 163 162 392 
3 163 392 418 
3 357 160 163 
3 357 163 358 
3 419 420 421 
3 419 421 422 
3 420 409 423 
3 420 423 421 
3 161 164 167 
3 161 167 162 
3 374 95 164 
3 374 164 161 
3 95 94 165 
3 95 165 164 
3 424 168 171 
3 424 171 425 
3 426 175 168 
3 426 168 424 
3 175 174 169 
3 175 169 168 
3 427 172 175 
3 427 175 426 
3 428 183 172 
3 428 172 427 
3 183 182 173 
3 183 173 172 
3 173 176 179 
3 173 179 174 
3 182 31 176 
3 182 176 173 
3 31 30 177 
3 31 177 176 
3 429 180 183 
3 429 183 428 
3 430 187 180 
3 430 180 429 
3 187 186 181 
3 187 181 180 
3 431 184 187 
3 431 187 430 
3 432 433 184 
3 432 184 431 
3 433 434 185 
3 433 185 184 
3 185 188 191 
3 185 191 186 
3 434 435 188 
3 434 188 185 
3 435 436 189 
3 435 189 188 
3 29 192 195 
3 29 195 30 
3 190 199 192 
3 190 192 29 
3 199 198 193 
3 199 193 192 
3 189 196 199 
3 189 199 190 
3 436 437 196 
3 436 196 189 
3 437 438 197 
3 437 197 196 
3 197 200 203 
3 197 203 198 
3 438 439 200 
3 438 200 197 
3 439 440 201 
3 439 201 200 
3 441 204 207 
3 441 207 442 
3 443 211 204 
3 443 204 441 
3 211 210 205 
3 211 205 204 
3 444 208 211 
3 444 211 443 
3 445 219 208 
3 445 208 444 
3 219 218 209 
3 219 209 208 
3 209 212 215 
3 209 215 210 
3 218 43 212 
3 218 212 209 
3 43 42 213 
3 43 213 212 
3 446 216 219 
3 446 219 445 
3 447 223 216 
3 447 216 446 
3 223 222 217 
3 223 217 216 
3 448 220 223 
3 448 223 447 
3 449 450 220 
3 449 220 448 
3 450 451 221 
3 450 221 220 
3 221 224 227 
3 221 227 222 
3 451 452 224 
3 451 224 221 
3 452 453 225 
3 452 225 224 
3 41 228 231 
3 41 231 42 
3 226 235 228 
3 226 228 41 
3 235 234 229 
3 235 229 228 
3 225 232 235 
3 225 235 226 
3 453 454 232 
3 453 232 225 
3 454 455 233 
3 454 233 232 
3 233 236 239 
3 233 239 234 
3 455 456 236 
3 455 236 233 
3 456 457 237 
3 456 237 236 
3 458 240 243 
3 458 243 459 
3 460 247 240 
3 460 240 458 
3 461 462 463 
3 461 463 464 
3 465 244 247 
3 465 247 460 
3 466 255 244 
3 466 244 465 
3 255 254 245 
3 255 245 244 
3 245 248 251 
3 245 251 246 
3 254 55 248 
3 254 248 245 
3 55 54 249 
3 55 249 248 
3 467 252 255 
3 467 255 466 
3 468 469 252 
3 468 252 467 
3 469 396 253 
3 469 253 252 
3 470 471 469 
3 470 469 468 
3 472 473 471 
3 472 471 470 
3 473 474 475 
3 473 475 471 
3 475 260 263 
3 475 263 396 
3 474 476 260 
3 474 260 475 
3 476 477 261 
3 476 261 260 
3 53 264 267 
3 53 267 54 
3 262 271 264 
3 262 264 53 
3 271 270 265 
3 271 265 264 
3 261 268 271 
3 261 271 262 
3 477 478 268 
3 477 268 261 
3 478 479 269 
3 478 269 268 
3 480 481 482 
3 480 482 483 
3 479 484 485 
3 479 485 269 
3 486 487 273 
3 486 273 272 
3 488 276 279 
3 488 279 489 
3 490 283 491 
3 490 491 492 
3 493 400 277 
3 493 277 276 
3 494 280 283 
3 494 283 490 
3 495 496 280 
3 495 280 494 
3 496 402 281 
3 496 281 280 
3 281 497 498 
3 281 498 282 
3 290 499 284 
3 290 284 500 
3 499 415 285 
3 499 285 284 
3 501 502 496 
3 501 496 495 
3 503 504 288 
3 503 288 505 
3 295 294 401 
3 295 401 502 
3 506 292 295 
3 506 295 507 
3 508 509 292 
3 508 292 506 
3 510 511 512 
3 510 512 513 
3 512 296 299 
3 512 299 514 
3 511 515 296 
3 511 296 512 
3 515 516 297 
3 515 297 296 
3 404 300 303 
3 404 303 415 
3 298 307 300 
3 298 300 404 
3 307 306 301 
3 307 301 300 
3 297 304 307 
3 297 307 298 
3 516 517 304 
3 516 304 297 
3 517 518 305 
3 517 305 304 
3 305 308 311 
3 305 311 306 
3 518 519 308 
3 518 308 305 
3 519 520 309 
3 519 309 308 
3 521 312 315 
3 521 315 522 
3 523 319 312 
3 523 312 521 
3 319 318 313 
3 319 313 312 
3 524 316 319 
3 524 319 523 
3 525 327 316 
3 525 316 524 
3 327 326 317 
3 327 317 316 
3 317 320 323 
3 317 323 318 
3 326 79 320 
3 326 320 317 
3 79 78 321 
3 79 321 320 
3 526 324 327 
3 526 327 525 
3 527 331 324 
3 527 324 526 
3 331 330 325 
3 331 325 324 
3 528 328 331 
3 528 331 527 
3 529 530 328 
3 529 328 528 
3 530 531 329 
3 530 329 328 
3 329 332 335 
3 329 335 330 
3 531 532 332 
3 531 332 329 
3 532 533 333 
3 532 333 332 
3 77 336 339 
3 77 339 78 
3 334 343 336 
3 334 336 77 
3 343 342 337 
3 343 337 336 
3 333 340 343 
3 333 343 334 
3 533 534 340 
3 533 340 333 
3 534 535 341 
3 534 341 340 
3 341 344 347 
3 341 347 342 
3 535 536 344 
3 535 344 341 
3 536 537 345 
3 536 345 344 
3 538 539 540 
3 538 540 541 
3 542 355 348 
3 542 348 543 
3 544 545 546 
3 544 546 539 
3 547 352 355 
3 547 355 542 
3 548 363 352 
3 548 352 547 
3 363 362 353 
3 363 353 352 
3 549 550 551 
3 549 551 545 
3 362 91 356 
3 362 356 353 
3 552 419 422 
3 552 422 550 
3 553 360 363 
3 553 363 548 
3 554 367 360 
3 554 360 553 
3 367 366 361 
3 367 361 360 
3 555 364 367 
3 555 367 554 
3 556 557 364 
3 556 364 555 
3 557 558 365 
3 557 365 364 
3 365 368 371 
3 365 371 366 
3 558 559 368 
3 558 368 365 
3 559 560 369 
3 559 369 368 
3 89 372 375 
3 89 375 90 
3 370 561 372 
3 370 372 89 
3 561 410 373 
3 561 373 372 
3 369 562 561 
3 369 561 370 
3 560 563 562 
3 560 562 369 
3 563 564 565 
3 563 565 562 
3 377 380 383 
3 377 383 378 
3 566 567 380 
3 566 380 377 
3 567 568 381 
3 567 381 380 
3 569 570 571 
3 569 571 572 
3 573 574 575 
3 573 575 576 
3 577 578 579 
3 577 579 580 
3 581 582 583 
3 581 583 584 
3 585 586 587 
3 585 587 588 
3 589 590 591 
3 589 591 592 
3 593 594 595 
3 593 595 596 
3 597 598 599 
3 597 599 600 
3 601 602 603 
3 601 603 604 
3 605 606 607 
3 605 607 608 
3 609 610 611 
3 609 611 612 
3 613 614 615 
3 613 615 616 
3 617 618 619 
3 617 619 620 
3 621 622 623 
3 621 623 624 
3 625 626 627 
3 625 627 628 
3 629 630 631 
3 629 631 632 
