ply
format ascii 1.0
comment VCGLIB generated
element vertex 306
property float x
property float y
property float z
element face 224
property list uchar int vertex_indices
end_header
-0.5 -1 0.5 
-0.5 -1 1 
-1 -1 1 
-1 -1 0.5 
-1 -0.779943 -1 
-1 -0.779943 -0.5 
-1 0.345934 -0.5 
-1 0.345934 -1 
1 -0.834958 0.5 
1 -0.779943 0.500001 
0.999999 -0.779943 1 
1 -0.834958 1 
-0.5 -0.834958 1 
-0.5 -0.779943 1 
-1 -0.779943 1 
-1 -0.834958 1 
-1 -0.834958 -0.5 
-1 -0.779943 -0.5 
-1 -0.779943 -1 
-1 -0.834958 -1 
-0.5 -0.944986 -1 
-0.5 -1 -1 
-1 -1 -1 
-1 -0.944986 -1 
-0.5 -1 -0.5 
-0.5 -1 -1.19249e-08 
-1 -1 -1.19249e-08 
-1 -1 -0.5 
0.5 -1 -0.5 
0.5 -1 -1.19249e-08 
0 -1 -1.19249e-08 
0 -1 -0.5 
0.5 -1 0.5 
0.5 -1 1 
0 -1 1 
0 -1 0.5 
0.5 -0.779943 0.5 
0 -0.779943 0.5 
-1e-06 -0.779943 1 
0.499999 -0.779943 1 
0.5 -0.779943 -0.5 
0 -0.779943 -0.5 
0 -0.779943 -9.30073e-09 
0.5 -0.779943 -9.30073e-09 
-0.5 -0.779943 -0.5 
-1 -0.779943 -0.5 
-1 -0.779943 -9.30073e-09 
-0.5 -0.779943 -9.30073e-09 
1 -0.944986 0.5 
1 -0.889972 0.5 
1 -0.889972 1 
1 -0.944986 1 
1 -0.944986 -0.5 
1 -0.889972 -0.5 
1 -0.889972 -1.06128e-08 
1 -0.944986 -1.12688e-08 
1 -0.834958 -0.5 
1 -0.779943 -0.499999 
1 -0.779943 9.90699e-07 
1 -0.834958 -9.95677e-09 
-0.5 -0.944986 1 
-0.5 -0.889972 1 
-1 -0.889972 1 
-1 -0.944986 1 
0.5 -0.944986 1 
0.5 -0.889972 1 
0 -0.889972 1 
0 -0.944986 1 
0.5 -0.834958 1 
0.499999 -0.779943 1 
-1e-06 -0.779943 1 
0 -0.834958 1 
-1 -0.944986 -0.5 
-1 -0.889972 -0.5 
-1 -0.889972 -1 
-1 -0.944986 -1 
-1 -0.944986 0.5 
-1 -0.889972 0.5 
-1 -0.889972 -1.06128e-08 
-1 -0.944986 -1.12688e-08 
-1 -0.834958 0.5 
-1 -0.779943 0.5 
-1 -0.779943 -9.30073e-09 
-1 -0.834958 -9.95677e-09 
-0.5 -0.834958 -1 
-0.5 -0.889972 -1 
-1 -0.889972 -1 
-1 -0.834958 -1 
0.5 -0.834958 -1 
0.5 -0.889972 -1 
0 -0.889972 -1 
0 -0.834958 -1 
0.5 -0.944986 -1 
0.5 -1 -1 
0 -1 -1 
0 -0.944986 -1 
-0.5 -0.779943 0.5 
-0.5 -0.779943 1 
-1 -0.779943 0.5 
1 -0.889972 0.5 
1 -0.889972 1 
1 -0.889972 -1.06128e-08 
1 -0.834958 -9.95677e-09 
1 -0.834958 0.5 
1 -0.889972 0.5 
1 -0.779943 9.90699e-07 
1 -0.779943 0.500001 
-0.5 -0.889972 1 
-1 -0.889972 1 
0 -0.889972 1 
0 -0.834958 1 
-0.5 -0.834958 1 
0 -0.834958 1 
-1e-06 -0.779943 1 
-0.5 -0.779943 1 
-0.5 -0.834958 1 
-1 -0.889972 -0.5 
-1 -0.834958 -0.5 
-1 -0.834958 -1 
-1 -0.889972 -1 
-1 -0.834958 -9.95677e-09 
-1 -0.779943 -0.5 
-0.5 -0.889972 -1 
-0.5 -0.944986 -1 
-1 -0.944986 -1 
-1 -0.889972 -1 
0 -0.889972 -1 
0 -0.944986 -1 
-0.5 -1 -1 
-1 -1 -1 
0 -1 -1 
0.5 -1 -1 
1 -1 -1 
1 -1 -0.5 
1 -1 -1.19249e-08 
1 -1 0.5 
1 -1 1 
1 -0.779943 0.500001 
0.5 -0.779943 0.5 
0.5 0.345934 0.5 
1 0.345934 0.500001 
1 -0.779943 9.90699e-07 
1 -0.779943 0.500001 
1 -0.779943 -0.499999 
-0.5 -0.779943 0.5 
-1 -0.779943 0.5 
-1 0.345934 0.5 
-0.5 0.345934 0.5 
0.5 -0.779943 -1 
0 -0.779943 -1 
-0.5 -0.779943 -1 
0.5 -0.779943 -0.5 
1 -0.779943 -0.499999 
1 0.345934 -0.499999 
0.5 0.345934 -0.5 
1 -1 0.5 
1 -1 1 
1 -1 -1.19249e-08 
1 -0.944986 -1.12688e-08 
1 -0.944986 0.5 
1 -1 0.5 
1 -0.944986 -1.12688e-08 
1 -0.889972 -1.06128e-08 
1 -0.944986 0.5 
1 -1 -0.5 
1 -0.944986 -0.5 
1 -0.944986 -1.12688e-08 
1 -1 -1.19249e-08 
1 -1 -1 
1 -0.944986 -1 
1 -1 -0.5 
1 -0.944986 -1 
1 -0.889972 -1 
1 -0.889972 -0.5 
1 -0.944986 -0.5 
1 -0.889972 -0.5 
1 -0.834958 -0.5 
1 -0.889972 -1 
1 -0.834958 -1 
1 -0.834958 -0.5 
1 -0.834958 -1 
1 -0.779943 -0.999999 
1 -0.779943 -0.499999 
1 -0.834958 -0.5 
-0.5 -1 1 
-0.5 -0.944986 1 
-1 -0.944986 1 
-1 -1 1 
0 -1 1 
0 -0.944986 1 
-0.5 -0.944986 1 
-0.5 -1 1 
0 -0.889972 1 
-0.5 -0.889972 1 
0.5 -1 1 
0.5 -0.944986 1 
1 -1 1 
1 -0.944986 1 
0.5 -1 1 
1 -0.889972 1 
0.5 -0.889972 1 
0.5 -0.834958 1 
1 -0.889972 1 
1 -0.834958 1 
0.5 -0.834958 1 
0.5 -0.889972 1 
1 -0.834958 1 
0.999999 -0.779943 1 
-1 -1 -0.5 
-1 -1 -1 
-1 -1 -1.19249e-08 
-1 -1 0.5 
-1 -0.944986 0.5 
-1 -0.944986 -1.12688e-08 
-1 -1 -1.19249e-08 
-1 -1 1 
-1 -0.944986 1 
-1 -0.944986 1 
-1 -0.889972 1 
-1 -0.889972 0.5 
-1 -0.944986 0.5 
-1 -0.834958 0.5 
-1 -0.834958 -9.95677e-09 
-1 -0.889972 -1.06128e-08 
-1 -0.834958 1 
-1 -0.834958 1 
-1 -0.779943 1 
-0.5 -0.779943 -1 
-1 -0.779943 -1 
0 -0.779943 -1 
0.5 -0.779943 -1 
1 -0.779943 -0.999999 
1 -0.834958 -1 
1 -0.889972 -1 
0.5 -0.889972 -1 
0.5 -0.944986 -1 
1 -0.889972 -1 
1 -0.944986 -1 
0.5 -0.944986 -1 
0.5 -0.889972 -1 
1 -0.944986 -1 
1 -1 -1 
-0.5 0.345934 0.5 
-1 0.345934 0.5 
-1 0.345934 1 
-0.5 0.345934 1 
1 0.345934 0.500001 
0.5 0.345934 0.5 
0.499999 0.345934 1 
0.999999 0.345934 1 
1 0.345934 -0.999999 
0.5 0.345934 -1 
0.5 0.345934 -0.5 
1 0.345934 -0.499999 
-0.5 0.345934 -1 
-1 0.345934 -1 
-1 0.345934 -0.5 
-0.5 0.345934 -0.5 
0.499999 -0.779943 1 
0.999999 -0.779943 1 
0.999999 0.345934 1 
0.499999 0.345934 1 
0.5 -0.779943 0.5 
0.499999 -0.779943 1 
0.499999 0.345934 1 
0.5 0.345934 0.5 
-1 -0.779943 -0.5 
-0.5 -0.779943 -0.5 
-0.5 0.345934 -0.5 
-1 0.345934 -0.5 
-0.5 -0.779943 -1 
-1 -0.779943 -1 
-1 0.345934 -1 
-0.5 0.345934 -1 
1 -0.779943 -0.499999 
1 -0.779943 -0.999999 
1 0.345934 -0.999999 
1 0.345934 -0.499999 
-0.5 -0.779943 -0.5 
-0.5 -0.779943 -1 
-0.5 0.345934 -1 
-0.5 0.345934 -0.5 
0.5 -0.779943 -1 
0.5 -0.779943 -0.5 
0.5 0.345934 -0.5 
0.5 0.345934 -1 
-1 -0.779943 0.5 
-1 -0.779943 1 
-1 0.345934 1 
-1 0.345934 0.5 
-0.5 -0.779943 1 
-0.5 -0.779943 0.5 
-0.5 0.345934 0.5 
-0.5 0.345934 1 
-1 -0.779943 1 
-0.5 -0.779943 1 
-0.5 0.345934 1 
-1 0.345934 1 
1 -0.779943 -0.999999 
0.5 -0.779943 -1 
0.5 0.345934 -1 
1 0.345934 -0.999999 
0.999999 -0.779943 1 
1 -0.779943 0.500001 
1 0.345934 0.500001 
0.999999 0.345934 1 
3 0 1 2 
3 0 2 3 
3 4 5 6 
3 4 6 7 
3 8 9 10 
3 8 10 11 
3 12 13 14 
3 12 14 15 
3 16 17 18 
3 16 18 19 
3 20 21 22 
3 20 22 23 
3 24 25 26 
3 24 26 27 
3 28 29 30 
3 28 30 31 
3 32 33 34 
3 32 34 35 
3 36 37 38 
3 36 38 39 
3 40 41 42 
3 40 42 43 
3 44 45 46 
3 44 46 47 
3 48 49 50 
3 48 50 51 
3 52 53 54 
3 52 54 55 
3 56 57 58 
3 56 58 59 
3 60 61 62 
3 60 62 63 
3 64 65 66 
3 64 66 67 
3 68 69 70 
3 68 70 71 
3 72 73 74 
3 72 74 75 
3 76 77 78 
3 76 78 79 
3 80 81 82 
3 80 82 83 
3 84 85 86 
3 84 86 87 
3 88 89 90 
3 88 90 91 
3 92 93 94 
3 92 94 95 
3 25 0 3 
3 25 3 26 
3 30 35 0 
3 30 0 25 
3 35 34 1 
3 35 1 0 
3 37 96 97 
3 37 97 38 
3 42 47 96 
3 42 96 37 
3 47 46 98 
3 47 98 96 
3 99 8 11 
3 99 11 100 
3 101 102 103 
3 101 103 104 
3 102 105 106 
3 102 106 103 
3 107 12 15 
3 107 15 108 
3 109 110 111 
3 109 111 61 
3 112 113 114 
3 112 114 115 
3 116 117 118 
3 116 118 119 
3 78 120 16 
3 78 16 73 
3 83 82 121 
3 83 121 117 
3 122 123 124 
3 122 124 125 
3 126 127 123 
3 126 123 122 
3 95 94 21 
3 95 21 20 
3 128 24 27 
3 128 27 129 
3 130 31 24 
3 130 24 128 
3 31 30 25 
3 31 25 24 
3 131 28 31 
3 131 31 130 
3 132 133 28 
3 132 28 131 
3 133 134 29 
3 133 29 28 
3 29 32 35 
3 29 35 30 
3 134 135 32 
3 134 32 29 
3 135 136 33 
3 135 33 32 
3 137 138 139 
3 137 139 140 
3 141 43 36 
3 141 36 142 
3 43 42 37 
3 43 37 36 
3 143 40 43 
3 143 43 141 
3 144 145 146 
3 144 146 147 
3 148 149 41 
3 148 41 40 
3 41 44 47 
3 41 47 42 
3 149 150 44 
3 149 44 41 
3 151 152 153 
3 151 153 154 
3 155 48 51 
3 155 51 156 
3 157 158 159 
3 157 159 160 
3 161 162 99 
3 161 99 163 
3 164 165 166 
3 164 166 167 
3 168 169 52 
3 168 52 170 
3 171 172 173 
3 171 173 174 
3 175 176 102 
3 175 102 101 
3 177 178 179 
3 177 179 53 
3 180 181 182 
3 180 182 183 
3 184 185 186 
3 184 186 187 
3 188 189 190 
3 188 190 191 
3 189 192 193 
3 189 193 190 
3 194 195 189 
3 194 189 188 
3 196 197 64 
3 196 64 198 
3 197 199 65 
3 197 65 64 
3 200 201 112 
3 200 112 192 
3 202 203 204 
3 202 204 205 
3 206 207 69 
3 206 69 68 
3 208 72 75 
3 208 75 209 
3 210 79 72 
3 210 72 208 
3 79 78 73 
3 79 73 72 
3 211 212 213 
3 211 213 214 
3 215 216 212 
3 215 212 211 
3 217 218 219 
3 217 219 220 
3 219 221 222 
3 219 222 223 
3 218 224 221 
3 218 221 219 
3 225 226 81 
3 225 81 80 
3 227 84 87 
3 227 87 228 
3 229 91 84 
3 229 84 227 
3 91 90 85 
3 91 85 84 
3 230 88 91 
3 230 91 229 
3 231 232 88 
3 231 88 230 
3 232 233 89 
3 232 89 88 
3 234 235 127 
3 234 127 126 
3 236 237 238 
3 236 238 239 
3 240 241 93 
3 240 93 92 
3 242 243 244 
3 242 244 245 
3 246 247 248 
3 246 248 249 
3 250 251 252 
3 250 252 253 
3 254 255 256 
3 254 256 257 
3 258 259 260 
3 258 260 261 
3 262 263 264 
3 262 264 265 
3 266 267 268 
3 266 268 269 
3 270 271 272 
3 270 272 273 
3 274 275 276 
3 274 276 277 
3 278 279 280 
3 278 280 281 
3 282 283 284 
3 282 284 285 
3 286 287 288 
3 286 288 289 
3 290 291 292 
3 290 292 293 
3 294 295 296 
3 294 296 297 
3 298 299 300 
3 298 300 301 
3 302 303 304 
3 302 304 305 
