ply
format ascii 1.0
comment VCGLIB generated
element vertex 210
property float x
property float y
property float z
element face 224
property list uchar int vertex_indices
end_header
1 -2 -1 
1 -2 -0 
0 -2 -0 
0 -2 -1 
1 -1.66992 -2 
1 -1.77994 -2 
0 -1.77994 -2 
0 -1.66992 -2 
0 -2 7.58379 
-1 -2 7.58379 
-1 -2 -0 
0 -1.77994 8.58379 
0 -1.66992 8.58379 
-1 -1.66992 8.58379 
-2 -1.66992 -0 
-2 -1.55989 -1 
-2 -1.66992 -1 
0 -2 -2 
-1 -2 -1 
2 -2 -2 
2 -2 -1 
2 -2 -0 
1 -2 7.58379 
2 -2 7.58379 
1 -2 8.58379 
1 -1.55989 -0 
0 -1.55989 -0 
0 -1.55989 7.58379 
-1 -1.55989 7.58379 
-2 -1.55989 7.58379 
-2 0.691868 7.58379 
0 -1.55989 -1 
-1 -1.55989 -0 
-2 -2 7.58379 
-2 -1.88997 -0 
-2 -2 -0 
-1 -1.77994 -2 
-1 -1.66992 -2 
2 -1.66992 -2 
-1 -2 8.58379 
-2 -2 8.58379 
-2 -2 7.58379 
-2 -1.55989 -2 
-2 0.691868 -1 
-2 0.691868 -2 
2 -1.66992 7.58379 
2 -1.55989 7.58379 
2 -1.55989 8.58379 
2 -1.66992 8.58379 
-1 -1.55989 8.58379 
-2 -1.55989 8.58379 
-2 -1.66992 8.58379 
-2 -1.66992 -2 
-1 -1.88997 -2 
-1 -2 -2 
-2 -2 -2 
-2 -1.88997 -2 
-2 -2 -0 
-2 -2 -1 
0 -2 8.58379 
1 -1.55989 7.58379 
-2e-06 -1.55989 8.58379 
0.999998 -1.55989 8.58379 
1 -1.55989 -1 
-1 -1.55989 -1 
-2 -1.55989 -1 
-2 -1.55989 -0 
2 -1.88997 7.58379 
2 -1.77994 7.58379 
2 -1.77994 8.58379 
2 -1.88997 8.58379 
2 -1.88997 -1 
2 -1.77994 -1 
2 -1.77994 -0 
2 -1.88997 -0 
2 -1.66992 -1 
2 -1.55989 -0.999998 
2 -1.55989 2e-06 
2 -1.66992 -0 
-1 -1.88997 8.58379 
-1 -1.77994 8.58379 
-2 -1.77994 8.58379 
-2 -1.88997 8.58379 
1 -1.88997 8.58379 
1 -1.77994 8.58379 
0 -1.88997 8.58379 
1 -1.66992 8.58379 
0.999998 -1.55989 8.58379 
-2e-06 -1.55989 8.58379 
-2 -1.88997 -1 
-2 -1.77994 -1 
-2 -1.77994 -2 
-2 -1.88997 -2 
-2 -1.88997 7.58379 
-2 -1.77994 7.58379 
-2 -1.77994 -0 
-2 -1.66992 7.58379 
-2 -1.55989 7.58379 
-2 -1.55989 -0 
-2 -1.77994 -2 
-2 -1.66992 -2 
1 -1.88997 -2 
1 -2 -2 
0 -2 -2 
0 -1.88997 -2 
-1 -1.55989 7.58379 
-1 -1.55989 8.58379 
-2 -1.55989 7.58379 
-1 -2 -2 
-2 -2 -2 
1 -2 -2 
2 -2 8.58379 
2 -1.55989 7.58379 
1 -1.55989 7.58379 
1 0.691868 7.58379 
2 0.691868 7.58379 
2 -1.55989 2e-06 
2 -1.55989 7.58379 
2 -1.55989 -0.999998 
-1 0.691868 7.58379 
1 -1.55989 -2 
0 -1.55989 -2 
-1 -1.55989 -2 
1 -1.55989 -1 
2 -1.55989 -0.999998 
2 0.691868 -0.999998 
1 0.691868 -1 
2 -2 7.58379 
2 -2 8.58379 
2 -2 -0 
2 -2 -1 
2 -2 -2 
2 -1.88997 -2 
2 -1.77994 -2 
2 -1.66992 -2 
2 -1.55989 -2 
-1 -2 8.58379 
-2 -2 8.58379 
0 -2 8.58379 
1 -2 8.58379 
2 -2 8.58379 
2 -1.88997 8.58379 
2 -1.77994 8.58379 
2 -1.66992 8.58379 
2 -1.55989 8.58379 
-2 -2 -1 
-2 -2 -2 
-2 -2 8.58379 
-2 -1.88997 8.58379 
-2 -1.77994 8.58379 
-2 -1.66992 8.58379 
-2 -1.55989 8.58379 
-1 -1.55989 -2 
-2 -1.55989 -2 
0 -1.55989 -2 
1 -1.55989 -2 
2 -1.55989 -2 
2 -1.77994 -2 
2 -1.88997 -2 
2 -2 -2 
-1 0.691868 7.58379 
-2 0.691868 7.58379 
-2 0.691868 8.58379 
-1 0.691868 8.58379 
2 0.691868 7.58379 
1 0.691868 7.58379 
0.999998 0.691868 8.58379 
2 0.691868 8.58379 
2 0.691868 -2 
1 0.691868 -2 
1 0.691868 -1 
2 0.691868 -0.999998 
-1 0.691868 -2 
-2 0.691868 -2 
-2 0.691868 -1 
-1 0.691868 -1 
2 0.691868 8.58379 
0.999998 0.691868 8.58379 
1 -1.55989 7.58379 
0.999998 -1.55989 8.58379 
0.999998 0.691868 8.58379 
1 0.691868 7.58379 
-2 -1.55989 -1 
-1 -1.55989 -1 
-1 0.691868 -1 
-2 0.691868 -1 
-2 0.691868 -2 
-1 0.691868 -2 
2 0.691868 -2 
2 0.691868 -0.999998 
-1 -1.55989 -1 
-1 -1.55989 -2 
-1 0.691868 -2 
-1 0.691868 -1 
1 -1.55989 -2 
1 -1.55989 -1 
1 0.691868 -1 
1 0.691868 -2 
-2 0.691868 8.58379 
-2 0.691868 7.58379 
-1 -1.55989 8.58379 
-1 -1.55989 7.58379 
-1 0.691868 7.58379 
-1 0.691868 8.58379 
-1 0.691868 8.58379 
-2 0.691868 8.58379 
1 0.691868 -2 
2 0.691868 -2 
2 0.691868 7.58379 
2 0.691868 8.58379 
3 0 1 2 
3 0 2 3 
3 4 5 6 
3 4 6 7 
3 8 9 2 
3 2 9 10 
3 11 12 13 
3 14 15 16 
3 17 3 18 
3 3 2 10 
3 3 10 18 
3 19 20 0 
3 20 21 1 
3 20 1 0 
3 1 22 8 
3 1 8 2 
3 21 23 22 
3 21 22 1 
3 23 24 22 
3 25 26 27 
3 28 29 30 
3 31 32 26 
3 33 34 35 
3 7 6 36 
3 7 36 37 
3 38 5 4 
3 9 39 40 
3 9 40 41 
3 42 15 43 
3 42 43 44 
3 45 46 47 
3 45 47 48 
3 13 49 50 
3 13 50 51 
3 16 15 42 
3 16 42 52 
3 53 54 55 
3 53 55 56 
3 18 10 57 
3 18 57 58 
3 22 24 59 
3 22 59 8 
3 60 27 61 
3 60 61 62 
3 63 31 26 
3 63 26 25 
3 64 65 66 
3 64 66 32 
3 67 68 69 
3 67 69 70 
3 71 72 73 
3 71 73 74 
3 75 76 77 
3 75 77 78 
3 79 80 81 
3 79 81 82 
3 83 84 11 
3 83 11 85 
3 86 87 88 
3 86 88 12 
3 89 90 91 
3 89 91 92 
3 93 94 95 
3 93 95 34 
3 96 97 98 
3 96 98 14 
3 37 36 99 
3 37 99 100 
3 101 102 103 
3 101 103 104 
3 10 9 41 
3 10 41 57 
3 8 59 39 
3 39 9 8 
3 27 105 106 
3 27 106 61 
3 26 32 105 
3 26 105 27 
3 32 66 107 
3 32 107 105 
3 68 45 48 
3 68 48 69 
3 73 78 45 
3 73 45 68 
3 78 77 46 
3 78 46 45 
3 80 13 51 
3 80 51 81 
3 11 13 80 
3 12 88 49 
3 12 49 13 
3 90 16 52 
3 90 52 91 
3 95 14 16 
3 95 16 90 
3 14 98 15 
3 36 53 56 
3 36 56 99 
3 6 104 53 
3 6 53 36 
3 104 103 54 
3 104 54 53 
3 108 18 58 
3 108 58 109 
3 17 18 108 
3 110 0 3 
3 110 3 17 
3 19 0 110 
3 23 111 24 
3 112 113 114 
3 112 114 115 
3 116 25 60 
3 116 60 117 
3 25 27 60 
3 118 63 25 
3 118 25 116 
3 28 30 119 
3 120 121 31 
3 120 31 63 
3 31 64 32 
3 121 122 64 
3 121 64 31 
3 123 124 125 
3 123 125 126 
3 127 67 70 
3 127 70 128 
3 129 74 67 
3 129 67 127 
3 74 73 68 
3 74 68 67 
3 130 71 74 
3 130 74 129 
3 131 132 71 
3 131 71 130 
3 132 133 72 
3 132 72 71 
3 72 75 78 
3 72 78 73 
3 133 134 75 
3 133 75 72 
3 134 135 76 
3 134 76 75 
3 136 79 82 
3 136 82 137 
3 138 85 79 
3 138 79 136 
3 85 11 80 
3 85 80 79 
3 139 83 85 
3 139 85 138 
3 140 141 83 
3 140 83 139 
3 141 142 84 
3 141 84 83 
3 84 86 12 
3 84 12 11 
3 142 143 86 
3 142 86 84 
3 143 144 87 
3 143 87 86 
3 145 89 92 
3 145 92 146 
3 35 34 89 
3 35 89 145 
3 34 95 90 
3 34 90 89 
3 33 93 34 
3 147 148 93 
3 147 93 33 
3 148 149 94 
3 148 94 93 
3 94 96 14 
3 94 14 95 
3 149 150 96 
3 149 96 94 
3 150 151 97 
3 150 97 96 
3 152 37 100 
3 152 100 153 
3 154 7 37 
3 154 37 152 
3 155 4 7 
3 155 7 154 
3 156 38 4 
3 156 4 155 
3 38 157 5 
3 5 101 104 
3 5 104 6 
3 157 158 101 
3 157 101 5 
3 158 159 102 
3 158 102 101 
3 160 161 162 
3 160 162 163 
3 164 165 166 
3 164 166 167 
3 168 169 170 
3 168 170 171 
3 172 173 174 
3 172 174 175 
3 87 144 176 
3 87 176 177 
3 178 179 180 
3 178 180 181 
3 182 183 184 
3 182 184 185 
3 152 153 186 
3 152 186 187 
3 76 135 188 
3 76 188 189 
3 190 191 192 
3 190 192 193 
3 194 195 196 
3 194 196 197 
3 97 151 198 
3 97 198 199 
3 200 201 202 
3 200 202 203 
3 50 49 204 
3 50 204 205 
3 156 155 206 
3 156 206 207 
3 47 46 208 
3 47 208 209 
